<?xml version="1.0" encoding="UTF-8"?>
<!DOCTYPE svg PUBLIC "-//W3C//DTD SVG 1.1//EN" "http://www.w3.org/Graphics/SVG/1.1/DTD/svg11.dtd">
<!-- Creator: CorelDRAW 2021 (64-Bit Evaluation Version) -->
<svg xmlns="http://www.w3.org/2000/svg" xml:space="preserve" width="0.632575in" height="0.453886in" version="1.1" style="shape-rendering:geometricPrecision; text-rendering:geometricPrecision; image-rendering:optimizeQuality; fill-rule:evenodd; clip-rule:evenodd"
viewBox="0 0 17.51 12.56"
 xmlns:xlink="http://www.w3.org/1999/xlink"
 xmlns:xodm="http://www.corel.com/coreldraw/odm/2003">
 <defs>
  <style type="text/css">
   <![CDATA[
    .fil2 {fill:#373435}
    .fil0 {fill:#00273E}
    .fil1 {fill:#029CDC}
    .fil3 {fill:white;fill-rule:nonzero}
   ]]>
  </style>
 </defs>
 <g id="Layer_x0020_1">
  <metadata id="CorelCorpID_0Corel-Layer"/>
  <g id="_2735457725232">
   <path class="fil0" d="M0.14 12.56l6.78 0c0.06,0 0.12,-0.04 0.13,-0.11l2.91 -12.29c0.01,-0.04 0,-0.08 -0.03,-0.12 -0.03,-0.03 -0.06,-0.05 -0.11,-0.05l-6.78 0c-0.06,0 -0.12,0.04 -0.13,0.11l-2.91 12.29c-0.01,0.04 -0,0.08 0.03,0.12 0.03,0.03 0.06,0.05 0.11,0.05z"/>
   <path class="fil1" d="M7.68 12.56l6.78 0c0.06,0 0.12,-0.04 0.13,-0.11l2.91 -12.29c0.01,-0.04 0,-0.08 -0.03,-0.12 -0.03,-0.03 -0.06,-0.05 -0.11,-0.05l-6.78 0c-0.06,0 -0.12,0.04 -0.13,0.11l-2.91 12.29c-0.01,0.04 -0,0.08 0.03,0.12 0.03,0.03 0.06,0.05 0.11,0.05z"/>
  </g>
  <g id="_2735457723264">
   <path class="fil2" d="M5.33 9.62c-0.5,0.21 -1.08,0.27 -1.61,0.27 -0.95,0 -1.8,-0.29 -2.43,-1.01 -0.64,-0.74 -0.77,-1.66 -0.61,-2.61 0.18,-1.03 0.64,-1.9 1.44,-2.58 0.79,-0.68 1.72,-1 2.77,-1 0.5,0 1.1,0.05 1.57,0.29l0 -0.01c0.02,-0.11 0.12,-0.19 0.23,-0.19l1.5 0c0.07,0 0.13,0.03 0.18,0.08 0.05,0.05 0.06,0.12 0.05,0.19l-0.31 1.8 1.61 -1.98c0.05,-0.06 0.11,-0.09 0.18,-0.09l2.92 0c0.12,0 0.22,0.09 0.23,0.2l0.34 2.62c0.06,0.45 0.11,0.91 0.14,1.36 0,0.02 0,0.04 0,0.06 0.21,-0.51 0.44,-1.01 0.67,-1.5l1.24 -2.62c0.04,-0.08 0.12,-0.13 0.21,-0.13l1.6 0c0.08,0 0.16,0.04 0.2,0.11 0.04,0.07 0.05,0.15 0.01,0.23l-3.34 6.57c-0.04,0.08 -0.12,0.13 -0.21,0.13l-1.66 0c-0.12,0 -0.21,-0.08 -0.23,-0.2l-0.9 -5.58 -1.88 2.28 1.69 3.15c0.04,0.07 0.04,0.16 -0.01,0.23 -0.04,0.07 -0.12,0.11 -0.2,0.11l-1.88 0c-0.09,0 -0.17,-0.05 -0.21,-0.13l-1.02 -2.03 -0.34 1.96c-0.02,0.11 -0.12,0.19 -0.23,0.19l-1.5 0c-0.07,0 -0.13,-0.03 -0.18,-0.08 -0.03,-0.03 -0.04,-0.07 -0.05,-0.1zm0.33 -2.03l0.46 -2.69c-0.42,-0.28 -0.9,-0.39 -1.4,-0.39 -0.49,0 -0.9,0.17 -1.27,0.49 -0.4,0.35 -0.62,0.81 -0.71,1.34 -0.07,0.43 -0.05,0.9 0.24,1.25 0.28,0.34 0.69,0.45 1.11,0.45 0.55,0 1.06,-0.14 1.52,-0.43 0.01,-0.01 0.03,-0.01 0.04,-0.02z"/>
  </g>
  <path class="fil3" d="M5.56 9.57l1.12 -6.57 1.5 0 -0.46 2.67 2.17 -2.67 1.3 0 0.48 0 1.14 0 0.34 2.62c0.06,0.47 0.11,0.92 0.14,1.35 0.03,0.43 0.04,0.75 0.04,0.94l-0 0.3c0.22,-0.68 0.58,-1.54 1.08,-2.59l1.24 -2.62 1.6 0 -3.34 6.57 -1.66 0 -0.98 -6.08 -2.31 2.8 1.77 3.29 -1.88 0 -1.34 -2.66 -0.45 2.66 -1.5 0zm0.96 -6.29l-0.25 1.44c-0.44,-0.3 -0.95,-0.45 -1.55,-0.45 -0.53,0 -1,0.18 -1.42,0.55 -0.42,0.37 -0.68,0.86 -0.79,1.48 -0.1,0.6 -0.01,1.08 0.29,1.44 0.3,0.35 0.73,0.53 1.29,0.53 0.61,0 1.16,-0.16 1.65,-0.47l-0.25 1.47c-0.44,0.25 -1.03,0.37 -1.78,0.37 -0.96,0 -1.71,-0.31 -2.25,-0.93 -0.54,-0.62 -0.73,-1.43 -0.56,-2.41 0.17,-1 0.62,-1.82 1.36,-2.45 0.73,-0.63 1.61,-0.95 2.61,-0.95 0.74,0 1.29,0.12 1.64,0.37z"/>
 </g>
</svg>
