<?xml version="1.0" encoding="UTF-8"?>
<!DOCTYPE svg PUBLIC "-//W3C//DTD SVG 1.1//EN" "http://www.w3.org/Graphics/SVG/1.1/DTD/svg11.dtd">
<!-- Creator: CorelDRAW 2021 (64-Bit Evaluation Version) -->
<svg xmlns="http://www.w3.org/2000/svg" xml:space="preserve" width="1.70127in" height="2.02206in" version="1.1" style="shape-rendering:geometricPrecision; text-rendering:geometricPrecision; image-rendering:optimizeQuality; fill-rule:evenodd; clip-rule:evenodd"
viewBox="0 0 64.07 76.15"
 xmlns:xlink="http://www.w3.org/1999/xlink"
 xmlns:xodm="http://www.corel.com/coreldraw/odm/2003">
 <defs>
  <style type="text/css">
   <![CDATA[
    .fil2 {fill:#FDA57D}
    .fil1 {fill:black;fill-rule:nonzero;fill-opacity:0.101961}
    .fil0 {fill:url(#id0);fill-rule:nonzero}
   ]]>
  </style>
  <linearGradient id="id0" gradientUnits="userSpaceOnUse" x1="30.69" y1="69.15" x2="30.69" y2="0.33">
   <stop offset="0" style="stop-opacity:1; stop-color:#72351C"/>
   <stop offset="0.870588" style="stop-opacity:1; stop-color:#913214"/>
   <stop offset="1" style="stop-opacity:1; stop-color:#B02E0C"/>
  </linearGradient>
 </defs>
 <g id="Layer_x0020_1">
  <metadata id="CorelCorpID_0Corel-Layer"/>
  <g id="_2136055582688">
   <path class="fil0" d="M63.94 39.79c0,-9.46 -4.12,-17.96 -10.67,-23.81 -1.03,-3.35 -4.88,-5.55 -8.52,-5.72 1.4,-1.59 2.17,-3.63 2.17,-5.74 0,-1.18 -0.24,-2.35 -0.7,-3.43 -2.62,3.82 -8.01,4.23 -12.65,4.26 2,-0.78 2.9,-3.55 1.74,-5.35 -4.1,5.5 -11.51,7.21 -17.18,11.06 -10.66,5.17 -18,16.09 -18,28.73 0,5.35 1.32,10.39 3.65,14.82 3.41,12.45 14.8,21.54 28.26,21.54 13.49,0 24.86,-9.13 28.26,-21.55 2.33,-4.43 3.64,-9.47 3.64,-14.82z"/>
   <path id="_1111" class="fil1" d="M17.55 32.68c6.86,5.88 19.7,11.59 40.8,2.78l-0.19 -0.29c-20.46,8.49 -33.13,3.29 -40.09,-2.41 -0.18,-0.02 -0.35,-0.05 -0.53,-0.07z"/>
   <path class="fil2" d="M3.17 46.55c-0.15,-0.05 -0.3,-0.07 -0.45,-0.07 -1.01,0 -1.9,1.04 -2.37,2.58 -0.23,0.75 -0.36,1.61 -0.36,2.53 0,2.49 0.95,4.57 2.21,5.02 0.17,0.06 0.34,0.09 0.51,0.09 0.14,0 0.28,-0.02 0.41,-0.06 0.01,-0 0.02,-0.01 0.03,-0.01 1.01,-0.31 1.83,-1.65 2.15,-3.42l14.89 12.12c0,0 10.69,-6.82 25.25,0l13.35 -11.88c0.35,1.67 1.15,2.91 2.12,3.19 0.01,0 0.02,0.01 0.03,0.01 0.13,0.04 0.26,0.05 0.4,0.05 0.18,0 0.36,-0.03 0.53,-0.1 1.25,-0.46 2.2,-2.53 2.2,-5.01 0,-0.91 -0.13,-1.76 -0.35,-2.5 -0.47,-1.56 -1.36,-2.61 -2.38,-2.61 -0.15,0 -0.29,0.02 -0.43,0.06 -0.66,-3.79 -2.05,-7.34 -4.02,-10.48 -20.22,7.95 -32.63,2.37 -39.33,-3.37 -2.37,-0.35 -4.36,-1.1 -5.62,-2.4 -4.5,4.24 -7.66,9.9 -8.76,16.25zm28.82 18.78c-5.7,0 -10.32,1.16 -10.32,2.58 0,1.43 4.62,2.58 10.32,2.58 5.7,0 10.32,-1.16 10.32,-2.58 0,-1.43 -4.62,-2.58 -10.32,-2.58z"/>
  </g>
 </g>
</svg>
