<?xml version="1.0" encoding="UTF-8"?>
<!DOCTYPE svg PUBLIC "-//W3C//DTD SVG 1.1//EN" "http://www.w3.org/Graphics/SVG/1.1/DTD/svg11.dtd">
<!-- Creator: CorelDRAW 2021 (64-Bit Evaluation Version) -->
<svg xmlns="http://www.w3.org/2000/svg" xml:space="preserve" width="6.93387in" height="2.02209in" version="1.1" style="shape-rendering:geometricPrecision; text-rendering:geometricPrecision; image-rendering:optimizeQuality; fill-rule:evenodd; clip-rule:evenodd"
viewBox="0 0 1703.77 496.86"
 xmlns:xlink="http://www.w3.org/1999/xlink"
 xmlns:xodm="http://www.corel.com/coreldraw/odm/2003">
 <defs>
  <style type="text/css">
   <![CDATA[
    .fil5 {fill:#FDA57D}
    .fil1 {fill:#CCCCCC;fill-rule:nonzero}
    .fil4 {fill:black;fill-rule:nonzero;fill-opacity:0.101961}
    .fil0 {fill:url(#id0);fill-rule:nonzero}
    .fil3 {fill:url(#id1);fill-rule:nonzero}
    .fil2 {fill:url(#id2);fill-rule:nonzero}
   ]]>
  </style>
  <linearGradient id="id0" gradientUnits="userSpaceOnUse" x1="640.71" y1="476.43" x2="640.71" y2="238.22">
   <stop offset="0" style="stop-opacity:1; stop-color:#B02E0C"/>
   <stop offset="1" style="stop-opacity:1; stop-color:#EB4511"/>
  </linearGradient>
  <linearGradient id="id1" gradientUnits="userSpaceOnUse" x1="1485.99" y1="451.19" x2="1485.99" y2="2.19">
   <stop offset="0" style="stop-opacity:1; stop-color:#72351C"/>
   <stop offset="0.870588" style="stop-opacity:1; stop-color:#913214"/>
   <stop offset="1" style="stop-opacity:1; stop-color:#B02E0C"/>
  </linearGradient>
  <linearGradient id="id2" gradientUnits="userSpaceOnUse" xlink:href="#id0" x1="254.64" y1="205.36" x2="254.64" y2="0.01">
  </linearGradient>
 </defs>
 <g id="Layer_x0020_1">
  <metadata id="CorelCorpID_0Corel-Layer"/>
  <g id="_1624878729008">
   <path class="fil0" d="M150.99 238.38c19.68,0 37.33,4.09 52.92,12.26 15.6,8.17 27.79,20.29 36.57,36.34 8.78,16.05 13.18,35.43 13.18,58.14l0 147.63 -51.33 0 0 -139.9c0,-22.41 -5.6,-39.59 -16.81,-51.56 -11.2,-11.96 -26.5,-17.94 -45.88,-17.94 -19.39,0 -34.75,5.98 -46.11,17.94 -11.36,11.96 -17.04,29.14 -17.04,51.56l0 139.9 -51.78 0 0 -250.29 51.78 0 0 28.62c8.48,-10.29 19.3,-18.32 32.48,-24.08 13.18,-5.75 27.18,-8.63 42.02,-8.63l-0 0zm362.39 4.09l0 250.29 -51.78 0 0 -29.53c-8.17,10.29 -18.85,18.4 -32.03,24.31 -13.18,5.91 -27.18,8.85 -42.02,8.85 -19.68,0 -37.32,-4.09 -52.92,-12.26 -15.6,-8.17 -27.86,-20.29 -36.79,-36.34 -8.94,-16.05 -13.4,-35.43 -13.4,-58.14l0 -147.17 51.33 0 0 139.45c0,22.41 5.6,39.59 16.81,51.56 11.2,11.96 26.5,17.94 45.88,17.94 19.38,0 34.75,-5.98 46.11,-17.94 11.35,-11.96 17.04,-29.14 17.04,-51.56l0 -139.45 51.78 0 -0.01 0zm264.72 119.02c0,9.39 -0.61,17.87 -1.81,25.44l-191.24 0c1.51,19.99 8.94,36.04 22.26,48.15 13.32,12.12 29.68,18.17 49.06,18.17 27.86,0 47.54,-11.66 59.05,-34.98l55.87 0c-7.57,23.02 -21.27,41.87 -41.11,56.55 -19.84,14.69 -44.44,22.03 -73.81,22.03 -23.93,0 -45.35,-5.37 -64.28,-16.12 -18.93,-10.75 -33.77,-25.89 -44.51,-45.42 -10.75,-19.53 -16.13,-42.17 -16.13,-67.91 0,-25.74 5.22,-48.37 15.67,-67.91 10.45,-19.53 25.13,-34.6 44.06,-45.19 18.93,-10.6 40.65,-15.89 65.19,-15.89 23.62,0 44.67,5.15 63.14,15.44 18.47,10.29 32.86,24.76 43.15,43.38 10.29,18.62 15.44,40.05 15.44,64.28l-0.01 -0.02zm-54.06 -16.35c-0.3,-19.08 -7.11,-34.37 -20.44,-45.88 -13.32,-11.51 -29.83,-17.26 -49.52,-17.26 -17.87,0 -33.16,5.68 -45.88,17.04 -12.71,11.36 -20.29,26.73 -22.71,46.11l138.55 0 0 -0.01zm168.88 101.3l70.86 -203.96 54.96 0 -95.39 250.29 -61.78 0 -94.94 -250.29 55.42 0 70.86 203.96zm114.82 -79.95c0,-25.14 5.22,-47.4 15.67,-66.77 10.45,-19.38 24.68,-34.45 42.7,-45.2 18.02,-10.75 37.93,-16.12 59.73,-16.12 19.68,0 36.87,3.86 51.56,11.58 14.69,7.72 26.43,17.34 35.21,28.85l0 -36.34 52.24 0 0 250.29 -52.24 0 0 -37.25c-8.78,11.81 -20.74,21.65 -35.89,29.53 -15.14,7.88 -32.41,11.81 -51.78,11.81 -21.5,0 -41.19,-5.53 -59.05,-16.58 -17.87,-11.06 -32.03,-26.5 -42.48,-46.34 -10.45,-19.84 -15.67,-42.32 -15.67,-67.46l-0 -0.01zm204.86 0.91c0,-17.26 -3.56,-32.25 -10.68,-44.97 -7.11,-12.72 -16.43,-22.41 -27.94,-29.07 -11.51,-6.66 -23.92,-10 -37.25,-10 -13.32,0 -25.74,3.25 -37.25,9.77 -11.51,6.51 -20.82,16.05 -27.94,28.62 -7.11,12.57 -10.68,27.49 -10.68,44.74 0,17.26 3.56,32.41 10.68,45.42 7.11,13.02 16.5,22.94 28.17,29.75 11.66,6.82 24,10.22 37.02,10.22 13.32,0 25.74,-3.34 37.25,-10 11.51,-6.66 20.82,-16.43 27.94,-29.3 7.11,-12.87 10.68,-27.94 10.68,-45.2l0 0.01z"/>
   <path class="fil1" d="M576.53 231.02c-8.43,0 -15.96,-1.84 -22.6,-5.51 -6.64,-3.67 -11.85,-8.83 -15.63,-15.47 -3.78,-6.64 -5.67,-14.12 -5.67,-22.43 0,-8.31 1.89,-15.77 5.67,-22.36 3.78,-6.59 8.99,-11.72 15.63,-15.39 6.64,-3.67 14.18,-5.51 22.6,-5.51 7.34,0 13.91,1.43 19.68,4.3 5.77,2.86 10.34,7.05 13.69,12.55l-8.58 5.83c-2.81,-4.21 -6.37,-7.37 -10.69,-9.48 -4.32,-2.1 -9.02,-3.16 -14.1,-3.16 -6.15,0 -11.69,1.38 -16.61,4.13 -4.91,2.75 -8.75,6.67 -11.5,11.75 -2.75,5.08 -4.13,10.85 -4.13,17.33 0,6.59 1.38,12.4 4.13,17.41 2.75,5.02 6.59,8.91 11.5,11.66 4.91,2.75 10.45,4.13 16.61,4.13 5.08,0 9.78,-1.03 14.1,-3.08 4.32,-2.05 7.89,-5.18 10.69,-9.4l8.58 5.83c-3.35,5.5 -7.93,9.69 -13.77,12.55 -5.83,2.86 -12.36,4.3 -19.6,4.3l-0.01 0.01zm69.87 -86.67c11.12,0 19.66,2.78 25.6,8.35 5.94,5.56 8.91,13.8 8.91,24.71l0 52.81 -11.02 0 0 -13.28c-2.6,4.43 -6.4,7.89 -11.42,10.37 -5.02,2.48 -10.99,3.73 -17.9,3.73 -9.5,0 -17.06,-2.27 -22.68,-6.8 -5.62,-4.54 -8.43,-10.53 -8.43,-17.98 0,-7.24 2.62,-13.07 7.85,-17.5 5.24,-4.43 13.58,-6.65 25.03,-6.65l27.06 0 0 -5.18c0,-7.34 -2.05,-12.94 -6.15,-16.77 -4.11,-3.84 -10.09,-5.75 -17.98,-5.75 -5.4,0 -10.59,0.89 -15.55,2.67 -4.97,1.78 -9.23,4.24 -12.8,7.37l-5.18 -8.58c4.32,-3.67 9.5,-6.51 15.55,-8.5 6.05,-2 12.42,-3 19.11,-3l-0.01 -0.01zm-4.05 77.6c6.48,0 12.04,-1.49 16.68,-4.45 4.64,-2.97 8.1,-7.26 10.37,-12.88l0 -13.93 -26.73 0c-14.58,0 -21.87,5.08 -21.87,15.23 0,4.97 1.89,8.88 5.67,11.75 3.78,2.86 9.07,4.3 15.88,4.3l0 -0.01zm53.99 -111.94l11.5 0 0 120.21 -11.5 0 0 -120.21zm101.95 81.16l-71.28 0c0.65,8.85 4.05,16.01 10.2,21.46 6.15,5.45 13.93,8.18 23.33,8.18 5.29,0 10.15,-0.95 14.58,-2.83 4.43,-1.89 8.26,-4.67 11.5,-8.35l6.48 7.45c-3.78,4.53 -8.5,7.99 -14.18,10.37 -5.67,2.37 -11.91,3.56 -18.71,3.56 -8.75,0 -16.49,-1.86 -23.25,-5.59 -6.75,-3.73 -12.02,-8.88 -15.8,-15.47 -3.78,-6.59 -5.67,-14.04 -5.67,-22.36 0,-8.31 1.81,-15.77 5.43,-22.36 3.61,-6.59 8.58,-11.72 14.9,-15.39 6.32,-3.67 13.42,-5.51 21.3,-5.51 7.89,0 14.96,1.84 21.23,5.51 6.27,3.67 11.18,8.77 14.74,15.31 3.56,6.53 5.35,14.01 5.35,22.43l-0.16 3.56 0.01 0zm-41.14 -36.94c-8.21,0 -15.09,2.62 -20.66,7.85 -5.56,5.24 -8.72,12.07 -9.48,20.49l60.42 0c-0.76,-8.43 -3.92,-15.25 -9.48,-20.49 -5.56,-5.24 -12.5,-7.85 -20.82,-7.85l0.01 0zm77.16 -35.31c-4.97,0 -8.72,1.35 -11.26,4.05 -2.54,2.7 -3.8,6.7 -3.8,11.98l0 10.05 26.24 0 0 9.72 -25.92 0 0 75.49 -11.5 0 0 -75.49 -15.23 0 0 -9.72 15.23 0 0 -10.53c0,-7.78 2.24,-13.93 6.72,-18.47 4.48,-4.53 10.83,-6.8 19.03,-6.8 3.24,0 6.37,0.46 9.4,1.38 3.02,0.92 5.56,2.24 7.61,3.97l-3.89 8.58c-3.35,-2.81 -7.56,-4.21 -12.63,-4.21l-0.01 0zm39.08 25.43c11.12,0 19.66,2.78 25.6,8.35 5.94,5.56 8.91,13.8 8.91,24.71l0 52.81 -11.01 0 0 -13.28c-2.6,4.43 -6.4,7.89 -11.42,10.37 -5.02,2.48 -10.99,3.73 -17.9,3.73 -9.5,0 -17.06,-2.27 -22.68,-6.8 -5.62,-4.54 -8.43,-10.53 -8.43,-17.98 0,-7.24 2.62,-13.07 7.85,-17.5 5.24,-4.43 13.58,-6.65 25.03,-6.65l27.06 0 0 -5.18c0,-7.34 -2.05,-12.94 -6.15,-16.77 -4.11,-3.84 -10.1,-5.75 -17.98,-5.75 -5.4,0 -10.59,0.89 -15.55,2.67 -4.97,1.78 -9.23,4.24 -12.8,7.37l-5.18 -8.58c4.32,-3.67 9.5,-6.51 15.55,-8.5 6.05,-2 12.42,-3 19.11,-3l-0.01 -0.01zm-4.05 77.6c6.48,0 12.04,-1.49 16.68,-4.45 4.64,-2.97 8.1,-7.26 10.37,-12.88l0 -13.93 -26.73 0c-14.58,0 -21.87,5.08 -21.87,15.23 0,4.97 1.89,8.88 5.67,11.75 3.78,2.86 9.07,4.3 15.88,4.3l0 -0.01zm89.63 9.07c-8.43,0 -15.96,-1.84 -22.6,-5.51 -6.65,-3.67 -11.85,-8.83 -15.63,-15.47 -3.78,-6.64 -5.67,-14.12 -5.67,-22.43 0,-8.31 1.89,-15.77 5.67,-22.36 3.78,-6.59 8.99,-11.72 15.63,-15.39 6.64,-3.67 14.18,-5.51 22.6,-5.51 7.34,0 13.91,1.43 19.68,4.3 5.78,2.86 10.34,7.05 13.69,12.55l-8.58 5.83c-2.81,-4.21 -6.37,-7.37 -10.69,-9.48 -4.32,-2.1 -9.02,-3.16 -14.1,-3.16 -6.15,0 -11.69,1.38 -16.61,4.13 -4.91,2.75 -8.75,6.67 -11.5,11.75 -2.75,5.08 -4.13,10.85 -4.13,17.33 0,6.59 1.38,12.4 4.13,17.41 2.75,5.02 6.59,8.91 11.5,11.66 4.91,2.75 10.45,4.13 16.61,4.13 5.08,0 9.78,-1.03 14.1,-3.08 4.32,-2.05 7.89,-5.18 10.69,-9.4l8.58 5.83c-3.35,5.5 -7.94,9.69 -13.77,12.55 -5.83,2.86 -12.36,4.3 -19.6,4.3l-0.01 0.01zm73.92 0c-8.43,0 -15.96,-1.84 -22.6,-5.51 -6.64,-3.67 -11.85,-8.83 -15.63,-15.47 -3.78,-6.64 -5.67,-14.12 -5.67,-22.43 0,-8.31 1.89,-15.77 5.67,-22.36 3.78,-6.59 8.99,-11.72 15.63,-15.39 6.65,-3.67 14.18,-5.51 22.6,-5.51 7.34,0 13.91,1.43 19.68,4.3 5.78,2.86 10.34,7.05 13.69,12.55l-8.58 5.83c-2.81,-4.21 -6.37,-7.37 -10.69,-9.48 -4.32,-2.1 -9.02,-3.16 -14.1,-3.16 -6.15,0 -11.69,1.38 -16.61,4.13 -4.91,2.75 -8.75,6.67 -11.5,11.75 -2.75,5.08 -4.13,10.85 -4.13,17.33 0,6.59 1.38,12.4 4.13,17.41 2.75,5.02 6.59,8.91 11.5,11.66 4.91,2.75 10.45,4.13 16.61,4.13 5.08,0 9.78,-1.03 14.1,-3.08 4.32,-2.05 7.89,-5.18 10.69,-9.4l8.58 5.83c-3.35,5.5 -7.94,9.69 -13.77,12.55 -5.83,2.86 -12.36,4.3 -19.6,4.3l-0.01 0.01zm40.06 -86.02l11.5 0 0 85.21 -11.5 0 0 -85.21zm5.83 -18.63c-2.37,0 -4.37,-0.81 -6,-2.43 -1.62,-1.62 -2.43,-3.56 -2.43,-5.83 0,-2.16 0.81,-4.05 2.43,-5.67 1.62,-1.62 3.61,-2.43 6,-2.43 2.37,0 4.37,0.78 6,2.35 1.62,1.57 2.43,3.43 2.43,5.59 0,2.37 -0.81,4.37 -2.43,6 -1.62,1.62 -3.61,2.43 -6,2.43zm56.74 104.65c-8.21,0 -15.61,-1.86 -22.19,-5.59 -6.59,-3.73 -11.77,-8.88 -15.55,-15.47 -3.78,-6.59 -5.67,-14.04 -5.67,-22.36 0,-8.31 1.89,-15.77 5.67,-22.36 3.78,-6.59 8.96,-11.72 15.55,-15.39 6.59,-3.67 13.99,-5.51 22.19,-5.51 8.21,0 15.61,1.84 22.19,5.51 6.59,3.67 11.75,8.8 15.47,15.39 3.73,6.59 5.59,14.04 5.59,22.36 0,8.31 -1.86,15.77 -5.59,22.36 -3.73,6.59 -8.88,11.75 -15.47,15.47 -6.59,3.73 -13.99,5.59 -22.19,5.59zm0 -10.2c6.05,0 11.48,-1.38 16.28,-4.13 4.81,-2.75 8.56,-6.67 11.26,-11.75 2.7,-5.08 4.05,-10.85 4.05,-17.33 0,-6.48 -1.35,-12.26 -4.05,-17.33 -2.7,-5.08 -6.46,-8.99 -11.26,-11.75 -4.81,-2.75 -10.23,-4.13 -16.28,-4.13 -6.05,0 -11.48,1.38 -16.28,4.13 -4.81,2.75 -8.58,6.67 -11.34,11.75 -2.75,5.08 -4.13,10.85 -4.13,17.33 0,6.48 1.38,12.25 4.13,17.33 2.75,5.08 6.53,8.99 11.34,11.75 4.81,2.75 10.23,4.13 16.28,4.13zm11.5 -109.19l15.39 0 -26.24 20.08 -11.34 0 22.19 -20.08zm82.82 32.73c10.7,0 19.2,3.1 25.51,9.31 6.32,6.21 9.48,15.25 9.48,27.13l0 49.41 -11.5 0 0 -48.27c0,-8.86 -2.22,-15.61 -6.65,-20.25 -4.43,-4.64 -10.74,-6.97 -18.95,-6.97 -9.18,0 -16.44,2.73 -21.79,8.18 -5.35,5.45 -8.02,12.99 -8.02,22.6l0 44.71 -11.5 0 0 -85.21 11.01 0 0 15.71c3.13,-5.18 7.48,-9.21 13.04,-12.07 5.56,-2.86 12.02,-4.3 19.36,-4.3l-0.01 0.01z"/>
   <path class="fil2" d="M85.2 195.54l47.81 -137.6 37.09 0 -64.36 168.87 -41.68 0 -64.05 -168.87 37.39 0 47.81 137.6zm106.89 -150.79c-6.33,0 -11.65,-2.14 -15.94,-6.44 -4.29,-4.29 -6.44,-9.6 -6.44,-15.94 0,-6.33 2.14,-11.65 6.44,-15.94 4.29,-4.29 9.6,-6.44 15.94,-6.44 6.13,0 11.34,2.14 15.63,6.44 4.29,4.29 6.44,9.6 6.44,15.94 0,6.33 -2.14,11.65 -6.44,15.94 -4.29,4.29 -9.5,6.44 -15.63,6.44zm17.16 13.18l0 168.87 -34.93 0 0 -168.87 34.93 0zm58.77 -57.93l0 226.79 -34.94 0 0 -226.79 34.94 0zm58.77 0l0 226.79 -34.94 0 0 -226.79 34.94 0zm12.19 141.59c0,-16.95 3.52,-31.98 10.57,-45.06 7.05,-13.08 16.65,-23.24 28.81,-30.49 12.16,-7.25 25.59,-10.88 40.3,-10.88 13.28,0 24.87,2.6 34.79,7.81 9.91,5.21 17.83,11.7 23.76,19.46l0 -24.52 35.25 0 0 168.87 -35.25 0 0 -25.13c-5.92,7.97 -14,14.6 -24.22,19.92 -10.22,5.31 -21.86,7.97 -34.94,7.97 -14.51,0 -27.79,-3.73 -39.84,-11.19 -12.06,-7.46 -21.6,-17.87 -28.66,-31.26 -7.05,-13.38 -10.57,-28.55 -10.57,-45.51l0 0.02zm138.22 0.62c0,-11.65 -2.4,-21.76 -7.2,-30.34 -4.81,-8.58 -11.08,-15.12 -18.85,-19.62 -7.76,-4.49 -16.14,-6.74 -25.13,-6.74 -8.99,0 -17.36,2.19 -25.14,6.59 -7.76,4.39 -14.05,10.83 -18.85,19.31 -4.8,8.48 -7.2,18.54 -7.2,30.19 0,11.65 2.4,21.86 7.2,30.65 4.8,8.79 11.14,15.48 19,20.08 7.87,4.6 16.19,6.89 24.98,6.89 8.99,0 17.36,-2.25 25.13,-6.74 7.76,-4.49 14.05,-11.08 18.85,-19.77 4.8,-8.68 7.2,-18.85 7.2,-30.49l0.01 0.01z"/>
   <g>
    <path class="fil3" d="M1702.94 259.59c0,-61.75 -26.89,-117.2 -69.59,-155.33 -6.71,-21.85 -31.86,-36.22 -55.6,-37.3 9.12,-10.34 14.16,-23.68 14.16,-37.47 0,-7.69 -1.57,-15.31 -4.59,-22.37 -17.12,24.95 -52.28,27.6 -82.54,27.8 13.06,-5.06 18.93,-23.15 11.34,-34.91 -26.78,35.89 -75.07,47.02 -112.08,72.15 -69.53,33.72 -117.47,104.97 -117.47,187.43 0,34.91 8.6,67.81 23.79,96.7 22.25,81.21 96.56,140.57 184.4,140.57 88.03,0 162.21,-59.54 184.41,-140.58 15.18,-28.89 23.78,-61.79 23.78,-96.69z"/>
    <path id="_1111" class="fil4" d="M1400.25 213.25c44.73,38.37 128.55,75.65 266.2,18.12l-1.22 -1.91c-133.49,55.38 -216.17,21.44 -261.56,-15.74 -1.16,-0.14 -2.3,-0.3 -3.43,-0.47z"/>
    <path class="fil5" d="M1306.45 303.73c-0.95,-0.3 -1.93,-0.45 -2.93,-0.45 -6.61,0 -12.38,6.77 -15.45,16.81 -1.49,4.87 -2.34,10.52 -2.34,16.54 0,16.28 6.22,29.83 14.44,32.76 1.08,0.39 2.2,0.59 3.34,0.59 0.91,0 1.81,-0.13 2.69,-0.38 0.06,-0.02 0.12,-0.03 0.18,-0.05 6.57,-2 11.94,-10.75 14.01,-22.34l97.15 79.07c0,0 69.76,-44.5 164.77,0l87.09 -77.54c2.26,10.87 7.48,18.97 13.8,20.83 0.06,0.02 0.13,0.04 0.19,0.05 0.84,0.23 1.71,0.35 2.58,0.35 1.18,0 2.34,-0.22 3.46,-0.63 8.17,-3.02 14.33,-16.52 14.33,-32.72 0,-5.92 -0.82,-11.48 -2.26,-16.3 -3.05,-10.17 -8.85,-17.05 -15.52,-17.05 -0.96,0 -1.91,0.14 -2.83,0.42 -4.32,-24.75 -13.4,-47.86 -26.26,-68.36 -131.94,51.88 -212.91,15.46 -256.59,-22 -15.49,-2.32 -28.43,-7.15 -36.67,-15.65 -29.35,27.69 -49.95,64.56 -57.18,106.03zm188.06 122.55c-37.2,0 -67.35,7.54 -67.35,16.84 0,9.3 30.15,16.84 67.35,16.84 37.2,0 67.35,-7.54 67.35,-16.84 0,-9.3 -30.15,-16.84 -67.35,-16.84z"/>
   </g>
  </g>
 </g>
</svg>
