<?xml version="1.0" encoding="UTF-8"?>
<!DOCTYPE svg PUBLIC "-//W3C//DTD SVG 1.0//EN" "http://www.w3.org/TR/2001/REC-SVG-20010904/DTD/svg10.dtd">
<!-- Creator: CorelDRAW 2021 (64-Bit) -->
<svg xmlns="http://www.w3.org/2000/svg" xml:space="preserve" width="243.457mm" height="73.5778mm" version="1.0" style="shape-rendering:geometricPrecision; text-rendering:geometricPrecision; image-rendering:optimizeQuality; fill-rule:evenodd; clip-rule:evenodd"
viewBox="0 0 200.139 60.486"
 xmlns:xlink="http://www.w3.org/1999/xlink"
 xmlns:xodm="http://www.corel.com/coreldraw/odm/2003">
 <defs>
  <style type="text/css">
   <![CDATA[
    .fil2 {fill:#CCCCCC;fill-rule:nonzero}
    .fil0 {fill:url(#id0)}
    .fil1 {fill:url(#id1);fill-rule:nonzero}
    .fil3 {fill:url(#id2);fill-rule:nonzero}
   ]]>
  </style>
  <linearGradient id="id0" gradientUnits="userSpaceOnUse" x1="178.892" y1="55.85" x2="178.892" y2="1.832">
   <stop offset="0" style="stop-opacity:1; stop-color:#B02E0C"/>
   <stop offset="1" style="stop-opacity:1; stop-color:#EB4511"/>
  </linearGradient>
  <linearGradient id="id1" gradientUnits="userSpaceOnUse" xlink:href="#id0" x1="78.477" y1="58.044" x2="78.477" y2="29.597">
  </linearGradient>
  <linearGradient id="id2" gradientUnits="userSpaceOnUse" xlink:href="#id0" x1="31.185" y1="25.777" x2="31.185" y2="0.512">
  </linearGradient>
 </defs>
 <g id="Layer_x0020_1">
  <metadata id="CorelCorpID_0Corel-Layer"/>
  <path class="fil0" d="M178.217 60.472c-5.758,-0.192 -11.022,-2.824 -14.829,-7.098 -1.859,-2.087 -3.323,-4.517 -4.305,-7.134 -1.004,-2.676 -1.496,-5.54 -1.421,-8.393 0.063,-7.296 2.761,-12.937 7.069,-18.609 2.009,-2.644 4.221,-5.134 6.375,-7.659 2.232,-2.617 4.403,-5.275 6.297,-8.151 0.59,-0.897 1.181,-1.794 1.771,-2.69 -0.065,0.376 0.584,1.807 0.779,2.129 0.587,0.966 1.321,1.886 2.044,2.753 0.91,1.091 1.859,2.153 2.795,3.222 2.153,2.46 4.266,4.974 5.983,7.765 1.805,2.935 3.135,6.13 3.415,9.594 0.221,2.737 -0.243,5.343 -1.211,7.806 0.191,-0.292 0.372,-0.588 0.545,-0.878 1.214,-2.045 2.297,-4.438 3.041,-6.696l0.555 -1.684 0.696 1.63c1.566,3.667 2.282,7.493 2.317,11.469 0.075,2.853 -0.417,5.718 -1.422,8.395 -0.982,2.618 -2.447,5.048 -4.307,7.136 -3.809,4.275 -9.076,6.906 -14.836,7.095 -0.535,0.018 -0.795,0.018 -1.349,-0zm0.557 -29.036c-2.699,3.386 -9.729,10.563 -4.424,15.6 -1.797,0.306 -3.366,-1.972 -3.471,-4.151 -2.538,6.677 0.954,13.053 7.895,13.053 6.94,0 10.746,-6.532 7.895,-13.053 -0.858,-1.963 -2.908,-6.352 -7.895,-11.45z"/>
  <path class="fil1" d="M18.382 29.02c2.396,0 4.544,0.498 6.442,1.493 1.899,0.995 3.383,2.47 4.452,4.424 1.069,1.954 1.604,4.313 1.604,7.078l0 17.973 -6.249 0 0 -17.032c0,-2.728 -0.682,-4.82 -2.046,-6.277 -1.364,-1.456 -3.226,-2.184 -5.585,-2.184 -2.36,0 -4.23,0.728 -5.613,2.184 -1.383,1.456 -2.074,3.548 -2.074,6.277l0 17.032 -6.304 0 0 -30.47 6.304 0 0 3.484c1.032,-1.253 2.35,-2.23 3.954,-2.931 1.604,-0.7 3.309,-1.051 5.115,-1.051zm44.117 0.498l0 30.47 -6.304 0 0 -3.595c-0.995,1.253 -2.295,2.24 -3.899,2.959 -1.604,0.719 -3.309,1.078 -5.115,1.078 -2.396,0 -4.544,-0.498 -6.442,-1.493 -1.899,-0.995 -3.392,-2.47 -4.479,-4.424 -1.088,-1.954 -1.631,-4.313 -1.631,-7.078l0 -17.917 6.249 0 0 16.977c0,2.728 0.682,4.82 2.046,6.277 1.364,1.456 3.226,2.184 5.585,2.184 2.359,0 4.23,-0.728 5.613,-2.184 1.382,-1.456 2.074,-3.548 2.074,-6.277l0 -16.977 6.304 0zm32.227 14.489c0,1.143 -0.074,2.175 -0.221,3.097l-23.281 0c0.184,2.433 1.088,4.387 2.71,5.862 1.622,1.475 3.613,2.212 5.972,2.212 3.392,0 5.788,-1.419 7.189,-4.258l6.802 0c-0.922,2.802 -2.59,5.097 -5.005,6.885 -2.415,1.788 -5.41,2.682 -8.986,2.682 -2.913,0 -5.521,-0.654 -7.825,-1.963 -2.304,-1.309 -4.111,-3.152 -5.419,-5.53 -1.309,-2.378 -1.963,-5.134 -1.963,-8.267 0,-3.134 0.636,-5.889 1.908,-8.267 1.272,-2.378 3.06,-4.212 5.364,-5.502 2.304,-1.29 4.949,-1.935 7.936,-1.935 2.876,0 5.438,0.627 7.687,1.88 2.249,1.253 4,3.014 5.253,5.281 1.253,2.267 1.88,4.876 1.88,7.825zm-6.581 -1.991c-0.037,-2.323 -0.866,-4.184 -2.489,-5.585 -1.622,-1.401 -3.631,-2.101 -6.028,-2.101 -2.175,0 -4.037,0.691 -5.585,2.074 -1.548,1.383 -2.47,3.254 -2.765,5.613l16.867 0zm20.559 12.332l8.627 -24.83 6.691 0 -11.613 30.47 -7.521 0 -11.558 -30.47 6.747 0 8.627 24.83zm13.978 -9.733c0,-3.06 0.636,-5.77 1.908,-8.129 1.272,-2.359 3.005,-4.194 5.198,-5.502 2.194,-1.309 4.618,-1.963 7.272,-1.963 2.396,0 4.489,0.47 6.277,1.41 1.788,0.94 3.217,2.111 4.286,3.512l0 -4.424 6.36 0 0 30.47 -6.36 0 0 -4.535c-1.069,1.438 -2.525,2.636 -4.369,3.595 -1.843,0.959 -3.945,1.438 -6.304,1.438 -2.618,0 -5.014,-0.673 -7.189,-2.018 -2.175,-1.346 -3.899,-3.226 -5.171,-5.641 -1.272,-2.415 -1.908,-5.152 -1.908,-8.212zm24.94 0.111c0,-2.101 -0.433,-3.926 -1.3,-5.475 -0.866,-1.548 -2,-2.728 -3.401,-3.539 -1.401,-0.811 -2.912,-1.217 -4.535,-1.217 -1.622,0 -3.134,0.396 -4.535,1.189 -1.401,0.793 -2.535,1.954 -3.401,3.484 -0.866,1.53 -1.3,3.346 -1.3,5.447 0,2.101 0.433,3.945 1.3,5.53 0.866,1.585 2.009,2.793 3.429,3.622 1.419,0.83 2.922,1.244 4.507,1.244 1.622,0 3.134,-0.406 4.535,-1.217 1.401,-0.811 2.535,-2 3.401,-3.567 0.866,-1.567 1.3,-3.401 1.3,-5.502z"/>
  <path class="fil2" d="M70.187 28.124c-1.026,0 -1.943,-0.224 -2.751,-0.671 -0.809,-0.447 -1.443,-1.075 -1.903,-1.883 -0.46,-0.809 -0.69,-1.719 -0.69,-2.731 0,-1.012 0.23,-1.92 0.69,-2.722 0.46,-0.802 1.095,-1.427 1.903,-1.873 0.809,-0.447 1.726,-0.671 2.751,-0.671 0.894,0 1.693,0.174 2.396,0.523 0.703,0.348 1.259,0.858 1.667,1.528l-1.045 0.71c-0.342,-0.513 -0.776,-0.897 -1.302,-1.154 -0.526,-0.256 -1.098,-0.385 -1.716,-0.385 -0.749,0 -1.423,0.168 -2.022,0.503 -0.598,0.335 -1.065,0.812 -1.4,1.43 -0.335,0.618 -0.503,1.321 -0.503,2.11 0,0.802 0.168,1.509 0.503,2.12 0.335,0.611 0.802,1.085 1.4,1.42 0.598,0.335 1.272,0.503 2.022,0.503 0.618,0 1.19,-0.125 1.716,-0.375 0.526,-0.25 0.96,-0.631 1.302,-1.144l1.045 0.71c-0.408,0.67 -0.966,1.18 -1.676,1.528 -0.71,0.348 -1.505,0.523 -2.386,0.523zm8.506 -10.551c1.354,0 2.393,0.339 3.116,1.016 0.723,0.677 1.085,1.68 1.085,3.008l0 6.429 -1.341 0 0 -1.617c-0.316,0.539 -0.779,0.96 -1.39,1.262 -0.611,0.302 -1.338,0.454 -2.179,0.454 -1.157,0 -2.077,-0.276 -2.761,-0.828 -0.684,-0.552 -1.026,-1.282 -1.026,-2.189 0,-0.881 0.319,-1.591 0.956,-2.13 0.638,-0.539 1.653,-0.809 3.047,-0.809l3.294 0 0 -0.631c0,-0.894 -0.25,-1.575 -0.749,-2.041 -0.5,-0.467 -1.229,-0.7 -2.189,-0.7 -0.657,0 -1.289,0.108 -1.893,0.325 -0.605,0.217 -1.124,0.516 -1.558,0.897l-0.631 -1.045c0.526,-0.447 1.157,-0.792 1.893,-1.035 0.736,-0.243 1.512,-0.365 2.327,-0.365zm-0.493 9.447c0.789,0 1.466,-0.181 2.031,-0.542 0.565,-0.362 0.986,-0.884 1.262,-1.568l0 -1.696 -3.254 0c-1.775,0 -2.662,0.618 -2.662,1.854 0,0.605 0.23,1.081 0.69,1.43 0.46,0.348 1.104,0.523 1.933,0.523zm6.573 -13.628l1.4 0 0 14.634 -1.4 0 0 -14.634zm12.411 9.881l-8.678 0c0.079,1.078 0.493,1.949 1.242,2.613 0.749,0.664 1.696,0.996 2.84,0.996 0.644,0 1.236,-0.115 1.775,-0.345 0.539,-0.23 1.006,-0.569 1.4,-1.016l0.789 0.907c-0.46,0.552 -1.035,0.973 -1.726,1.262 -0.69,0.289 -1.45,0.434 -2.278,0.434 -1.065,0 -2.008,-0.227 -2.83,-0.68 -0.822,-0.454 -1.463,-1.081 -1.923,-1.883 -0.46,-0.802 -0.69,-1.709 -0.69,-2.722 0,-1.012 0.22,-1.92 0.661,-2.722 0.44,-0.802 1.045,-1.427 1.814,-1.873 0.769,-0.447 1.634,-0.671 2.593,-0.671 0.96,0 1.821,0.224 2.584,0.671 0.763,0.447 1.361,1.068 1.795,1.864 0.434,0.795 0.651,1.706 0.651,2.731l-0.02 0.434zm-5.009 -4.497c-0.999,0 -1.837,0.319 -2.515,0.956 -0.677,0.638 -1.062,1.469 -1.154,2.495l7.356 0c-0.092,-1.026 -0.477,-1.857 -1.154,-2.495 -0.677,-0.638 -1.522,-0.956 -2.534,-0.956zm9.393 -4.299c-0.605,0 -1.062,0.164 -1.371,0.493 -0.309,0.329 -0.463,0.815 -0.463,1.459l0 1.223 3.195 0 0 1.183 -3.155 0 0 9.19 -1.4 0 0 -9.19 -1.854 0 0 -1.183 1.854 0 0 -1.282c0,-0.947 0.273,-1.696 0.818,-2.248 0.546,-0.552 1.318,-0.828 2.317,-0.828 0.394,0 0.776,0.056 1.144,0.168 0.368,0.112 0.677,0.273 0.927,0.483l-0.473 1.045c-0.408,-0.342 -0.92,-0.513 -1.538,-0.513zm4.758 3.096c1.354,0 2.393,0.339 3.116,1.016 0.723,0.677 1.085,1.68 1.085,3.008l0 6.429 -1.341 0 0 -1.617c-0.316,0.539 -0.779,0.96 -1.39,1.262 -0.611,0.302 -1.338,0.454 -2.179,0.454 -1.157,0 -2.077,-0.276 -2.761,-0.828 -0.684,-0.552 -1.026,-1.282 -1.026,-2.189 0,-0.881 0.319,-1.591 0.956,-2.13 0.638,-0.539 1.653,-0.809 3.047,-0.809l3.294 0 0 -0.631c0,-0.894 -0.25,-1.575 -0.749,-2.041 -0.5,-0.467 -1.229,-0.7 -2.189,-0.7 -0.657,0 -1.289,0.108 -1.893,0.325 -0.605,0.217 -1.124,0.516 -1.558,0.897l-0.631 -1.045c0.526,-0.447 1.157,-0.792 1.893,-1.035 0.736,-0.243 1.512,-0.365 2.327,-0.365zm-0.493 9.447c0.789,0 1.466,-0.181 2.031,-0.542 0.565,-0.362 0.986,-0.884 1.262,-1.568l0 -1.696 -3.254 0c-1.775,0 -2.662,0.618 -2.662,1.854 0,0.605 0.23,1.081 0.69,1.43 0.46,0.348 1.104,0.523 1.933,0.523zm10.912 1.104c-1.026,0 -1.943,-0.224 -2.751,-0.671 -0.809,-0.447 -1.443,-1.075 -1.903,-1.883 -0.46,-0.809 -0.69,-1.719 -0.69,-2.731 0,-1.012 0.23,-1.92 0.69,-2.722 0.46,-0.802 1.095,-1.427 1.903,-1.873 0.809,-0.447 1.726,-0.671 2.751,-0.671 0.894,0 1.693,0.174 2.396,0.523 0.703,0.348 1.259,0.858 1.667,1.528l-1.045 0.71c-0.342,-0.513 -0.776,-0.897 -1.302,-1.154 -0.526,-0.256 -1.098,-0.385 -1.716,-0.385 -0.749,0 -1.423,0.168 -2.022,0.503 -0.598,0.335 -1.065,0.812 -1.4,1.43 -0.335,0.618 -0.503,1.321 -0.503,2.11 0,0.802 0.168,1.509 0.503,2.12 0.335,0.611 0.802,1.085 1.4,1.42 0.598,0.335 1.272,0.503 2.022,0.503 0.618,0 1.19,-0.125 1.716,-0.375 0.526,-0.25 0.96,-0.631 1.302,-1.144l1.045 0.71c-0.408,0.67 -0.966,1.18 -1.676,1.528 -0.71,0.348 -1.505,0.523 -2.386,0.523zm8.999 0c-1.026,0 -1.943,-0.224 -2.751,-0.671 -0.809,-0.447 -1.443,-1.075 -1.903,-1.883 -0.46,-0.809 -0.69,-1.719 -0.69,-2.731 0,-1.012 0.23,-1.92 0.69,-2.722 0.46,-0.802 1.095,-1.427 1.903,-1.873 0.809,-0.447 1.726,-0.671 2.751,-0.671 0.894,0 1.693,0.174 2.396,0.523 0.703,0.348 1.259,0.858 1.667,1.528l-1.045 0.71c-0.342,-0.513 -0.776,-0.897 -1.302,-1.154 -0.526,-0.256 -1.098,-0.385 -1.716,-0.385 -0.749,0 -1.423,0.168 -2.022,0.503 -0.598,0.335 -1.065,0.812 -1.4,1.43 -0.335,0.618 -0.503,1.321 -0.503,2.11 0,0.802 0.168,1.509 0.503,2.12 0.335,0.611 0.802,1.085 1.4,1.42 0.598,0.335 1.272,0.503 2.022,0.503 0.618,0 1.19,-0.125 1.716,-0.375 0.526,-0.25 0.96,-0.631 1.302,-1.144l1.045 0.71c-0.408,0.67 -0.966,1.18 -1.676,1.528 -0.71,0.348 -1.505,0.523 -2.386,0.523zm4.877 -10.472l1.4 0 0 10.374 -1.4 0 0 -10.374zm0.71 -2.268c-0.289,0 -0.532,-0.099 -0.73,-0.296 -0.197,-0.197 -0.296,-0.434 -0.296,-0.71 0,-0.263 0.099,-0.493 0.296,-0.69 0.197,-0.197 0.44,-0.296 0.73,-0.296 0.289,0 0.532,0.095 0.73,0.286 0.197,0.191 0.296,0.417 0.296,0.68 0,0.289 -0.099,0.532 -0.296,0.73 -0.197,0.197 -0.44,0.296 -0.73,0.296zm6.908 12.74c-0.999,0 -1.9,-0.227 -2.702,-0.68 -0.802,-0.454 -1.433,-1.081 -1.893,-1.883 -0.46,-0.802 -0.69,-1.709 -0.69,-2.722 0,-1.012 0.23,-1.92 0.69,-2.722 0.46,-0.802 1.091,-1.427 1.893,-1.873 0.802,-0.447 1.703,-0.671 2.702,-0.671 0.999,0 1.9,0.224 2.702,0.671 0.802,0.447 1.43,1.071 1.883,1.873 0.454,0.802 0.68,1.709 0.68,2.722 0,1.012 -0.227,1.92 -0.68,2.722 -0.454,0.802 -1.081,1.43 -1.883,1.883 -0.802,0.454 -1.703,0.68 -2.702,0.68zm0 -1.242c0.736,0 1.397,-0.168 1.982,-0.503 0.585,-0.335 1.042,-0.812 1.371,-1.43 0.329,-0.618 0.493,-1.321 0.493,-2.11 0,-0.789 -0.164,-1.492 -0.493,-2.11 -0.329,-0.618 -0.786,-1.095 -1.371,-1.43 -0.585,-0.335 -1.246,-0.503 -1.982,-0.503 -0.736,0 -1.397,0.168 -1.982,0.503 -0.585,0.335 -1.045,0.812 -1.381,1.43 -0.335,0.618 -0.503,1.321 -0.503,2.11 0,0.789 0.168,1.492 0.503,2.11 0.335,0.618 0.795,1.095 1.381,1.43 0.585,0.335 1.246,0.503 1.982,0.503zm1.4 -13.293l1.874 0 -3.195 2.445 -1.381 0 2.702 -2.445zm10.083 3.984c1.302,0 2.337,0.378 3.106,1.134 0.769,0.756 1.154,1.857 1.154,3.303l0 6.015 -1.4 0 0 -5.877c0,-1.078 -0.27,-1.9 -0.809,-2.465 -0.539,-0.565 -1.308,-0.848 -2.307,-0.848 -1.118,0 -2.002,0.332 -2.653,0.996 -0.651,0.664 -0.976,1.581 -0.976,2.751l0 5.443 -1.4 0 0 -10.374 1.341 0 0 1.913c0.381,-0.631 0.911,-1.121 1.588,-1.469 0.677,-0.348 1.463,-0.523 2.357,-0.523z"/>
  <path class="fil3" d="M10.372 23.804l5.82 -16.752 4.515 0 -7.835 20.558 -5.074 0 -7.798 -20.558 4.552 0 5.82 16.752zm13.013 -18.357c-0.771,0 -1.418,-0.261 -1.94,-0.784 -0.522,-0.522 -0.784,-1.169 -0.784,-1.94 0,-0.771 0.261,-1.418 0.784,-1.94 0.522,-0.522 1.169,-0.784 1.94,-0.784 0.746,0 1.381,0.261 1.903,0.784 0.522,0.522 0.784,1.169 0.784,1.94 0,0.771 -0.261,1.418 -0.784,1.94 -0.522,0.522 -1.157,0.784 -1.903,0.784zm2.089 1.605l0 20.558 -4.253 0 0 -20.558 4.253 0zm7.155 -7.052l0 27.61 -4.253 0 0 -27.61 4.253 0zm7.155 0l0 27.61 -4.253 0 0 -27.61 4.253 0zm1.484 17.237c0,-2.064 0.429,-3.893 1.287,-5.485 0.858,-1.592 2.027,-2.829 3.507,-3.712 1.48,-0.883 3.115,-1.325 4.906,-1.325 1.617,0 3.028,0.317 4.235,0.951 1.206,0.634 2.17,1.424 2.892,2.369l0 -2.985 4.291 0 0 20.558 -4.291 0 0 -3.059c-0.721,0.97 -1.704,1.778 -2.948,2.425 -1.244,0.647 -2.661,0.97 -4.253,0.97 -1.766,0 -3.383,-0.454 -4.85,-1.362 -1.468,-0.908 -2.63,-2.176 -3.489,-3.806 -0.858,-1.629 -1.287,-3.476 -1.287,-5.541zm16.827 0.075c0,-1.418 -0.292,-2.649 -0.877,-3.694 -0.585,-1.045 -1.349,-1.841 -2.295,-2.388 -0.945,-0.547 -1.965,-0.821 -3.059,-0.821 -1.094,0 -2.114,0.267 -3.06,0.802 -0.945,0.535 -1.71,1.318 -2.295,2.351 -0.584,1.032 -0.877,2.257 -0.877,3.675 0,1.418 0.292,2.661 0.877,3.731 0.584,1.07 1.356,1.884 2.313,2.444 0.958,0.56 1.971,0.839 3.041,0.839 1.094,0 2.114,-0.274 3.059,-0.821 0.945,-0.547 1.71,-1.349 2.295,-2.407 0.584,-1.057 0.877,-2.295 0.877,-3.712z"/>
 </g>
</svg>
