<?xml version="1.0" encoding="UTF-8"?>
<!DOCTYPE svg PUBLIC "-//W3C//DTD SVG 1.1//EN" "http://www.w3.org/Graphics/SVG/1.1/DTD/svg11.dtd">
<!-- Creator: CorelDRAW 2021 (64-Bit Evaluation Version) -->
<svg xmlns="http://www.w3.org/2000/svg" xml:space="preserve" width="5.63844in" height="4.33854in" version="1.1" style="shape-rendering:geometricPrecision; text-rendering:geometricPrecision; image-rendering:optimizeQuality; fill-rule:evenodd; clip-rule:evenodd"
viewBox="0 0 879.34 676.62"
 xmlns:xlink="http://www.w3.org/1999/xlink"
 xmlns:xodm="http://www.corel.com/coreldraw/odm/2003">
 <defs>
  <style type="text/css">
   <![CDATA[
    .fil2 {fill:#2F2E41;fill-rule:nonzero}
    .fil3 {fill:#3F3D56;fill-rule:nonzero}
    .fil7 {fill:#A0616A;fill-rule:nonzero}
    .fil4 {fill:#CCCCCC;fill-rule:nonzero}
    .fil5 {fill:#E6E6E6;fill-rule:nonzero}
    .fil0 {fill:#EB4511;fill-rule:nonzero}
    .fil1 {fill:#FFB8B8;fill-rule:nonzero}
    .fil6 {fill:white;fill-rule:nonzero}
   ]]>
  </style>
 </defs>
 <g id="Layer_x0020_1">
  <metadata id="CorelCorpID_0Corel-Layer"/>
  <g id="_1624828884512">
   <path class="fil0" d="M302.11 164.08l-90.97 0 0 -27.62c28.75,-20.01 54.22,-18.27 87.72,1.62l3.25 25.99z"/>
   <polygon class="fil1" points="190.07,654.61 170.15,654.61 167.17,577.79 190.07,577.79 "/>
   <path class="fil2" d="M195.15 673.92l-64.22 -0 0 -0.81c0,-0 0,-0 0,-0 0,-13.8 11.19,-25 25,-25 0,0 0,0 0,0l0 0 39.22 0 -0 25.81z"/>
   <polygon class="fil1" points="302.25,654.61 322.16,654.61 325.14,577.79 302.24,577.79 "/>
   <path class="fil2" d="M297.17 648.11l39.22 -0 0 0c0,-0 0,-0 0,-0 13.8,0 24.99,11.19 24.99,25 0,0 0,0 0,0l0 0.81 -64.22 0 -0 -25.81z"/>
   <path class="fil2" d="M302.77 644.77c-3.42,-0.01 -6.38,-2.39 -7.14,-5.72l-49.36 -215.31c-0.22,-1.11 -1.19,-1.91 -2.32,-1.91 -0.02,0 -0.04,0 -0.06,0l-0.01 0c-0.01,-0 -0.03,-0 -0.04,-0 -1.14,0 -2.12,0.81 -2.33,1.93l-45.33 213.86c-0.73,3.37 -3.7,5.78 -7.15,5.79l-21.59 0c-4.04,-0 -7.31,-3.28 -7.31,-7.31 0,-0.14 0,-0.29 0.01,-0.43l16.08 -271.06 6.47 -1.92 0.12 0 127.13 1.11 27.08 270.76c0.02,0.24 0.04,0.48 0.04,0.71 0,3.81 -2.93,6.98 -6.72,7.28l-26.97 2.18c-0.2,0.02 -0.39,0.02 -0.59,0.02z"/>
   <circle class="fil1" cx="250.27" cy="74.68" r="39.9"/>
   <path class="fil3" d="M225.83 394.33c-0.27,-0 -0.58,0 -0.85,0 -6.71,0 -13.4,-0.99 -19.83,-2.92 -12.04,-3.63 -22.07,-12.09 -27.68,-23.35 -0.55,-1.05 -0.84,-2.21 -0.84,-3.4 0,-0.69 0.1,-1.39 0.29,-2.05 4.4,-15.02 25.66,-93.09 12.1,-155.15 -1.04,-4.67 -1.57,-9.47 -1.57,-14.26 0,-12.9 3.8,-25.53 10.91,-36.28 9.61,-14.77 24.83,-24.99 42.12,-28.33l0 -0c2.25,-0.44 4.51,-0.8 6.72,-1.07 2.61,-0.32 5.27,-0.48 7.91,-0.48 16.55,0 32.48,6.35 44.5,17.73 13.36,12.52 20.95,30.05 20.95,48.37 0,1.39 -0.05,2.82 -0.13,4.2l-10.43 167.33c-0.15,2.55 -1.63,4.83 -3.9,6.01 -12.01,6.29 -48.09,23.65 -80.29,23.65z"/>
   <path class="fil2" d="M295.34 45.31c-7.41,-18.64 -25.46,-30.88 -45.52,-30.88 -2.74,0 -5.48,0.23 -8.18,0.69l12.58 10.17c-15.63,0.53 -32.08,-0.59 -43.24,10.36 3.55,-0.1 8.21,7.5 11.76,7.4 -6.64,0.13 -12.67,4.8 -15.6,10.76 -1.73,3.91 -2.64,8.15 -2.64,12.43 0,2.38 0.28,4.75 0.82,7.06 1.31,6.51 11.32,21.77 14.01,27.84 -0.46,-15.87 30.78,-53.73 46.04,-49.78 -7.74,2.87 -14.48,7.99 -19.33,14.68 7.92,-4 16.68,-6.08 25.55,-6.08 2.7,0 5.41,0.2 8.08,0.58 1.75,0.4 3.53,0.6 5.32,0.6 0.9,0 1.8,-0.05 2.7,-0.15 4.58,-0.91 7.89,-4.93 7.89,-9.6 0,-2.19 -0.73,-4.32 -2.09,-6.04l1.83 -0.04z"/>
   <path class="fil0" d="M223.08 384.28c-1.01,-0 -2.01,-0.21 -2.93,-0.62l-75.7 -33.04c-2.67,-1.15 -4.4,-3.77 -4.4,-6.67 0,-0.64 0.09,-1.28 0.25,-1.9l50.12 -189.32c3.18,-12.02 14.05,-20.39 26.49,-20.39 2.55,0 5.09,0.36 7.53,1.06l20.04 5.72 -14.11 238.29c-0.15,2.38 -1.45,4.55 -3.49,5.8 -1.14,0.71 -2.46,1.08 -3.8,1.09l-0 0z"/>
   <path class="fil0" d="M363.19 342.04l-3.33 -12.56 -4.82 -18.26 -2.32 -8.76 -4.82 -18.21 -34.81 -131.54c-3.16,-12.02 -14.04,-20.4 -26.47,-20.4 -2.55,0 -5.1,0.36 -7.55,1.06l-20.03 5.72 9.93 167.6 1.02 17.5 0.65 11.03 0 0.02 1.04 17.4 1.46 24.74c0.25,3.85 3.43,6.86 7.29,6.89 1.01,-0.01 2,-0.22 2.93,-0.62l75.7 -33.04c2.67,-1.14 4.4,-3.77 4.4,-6.67 0,-0.64 -0.09,-1.29 -0.25,-1.91l0 0z"/>
   <polygon class="fil4" points="352.71,302.47 269.97,324.21 268.95,306.71 347.89,284.26 "/>
   <polygon class="fil4" points="359.86,329.49 271.66,352.65 270.62,335.25 270.62,335.24 355.03,311.23 "/>
   <polygon class="fil4" points="233.52,310.48 232.49,327.65 151.35,303.48 156.11,285.51 "/>
   <polygon class="fil4" points="231.83,338.96 149.03,312.23 144.27,330.25 230.82,356.03 "/>
   <path class="fil1" d="M150.47 356.92c7.68,-2.01 13.04,-8.95 13.04,-16.89 0,-2.52 -0.55,-5.01 -1.6,-7.3l38.93 -122.21 -27.6 -5.78 -35.69 119.81c-5.65,3.07 -9.16,8.99 -9.16,15.41 0,9.69 7.86,17.55 17.55,17.55 1.53,0 3.06,-0.2 4.54,-0.6l-0 0z"/>
   <path class="fil3" d="M201.92 150.44l0 0c7.93,0.81 12.38,9.72 10.41,20.82l-9.46 53.25c-0.71,3.99 -3.99,7.15 -6.72,6.47l-31.99 -8c-2.46,-0.62 -3.37,-4.11 -1.97,-7.61l19.2 -48.17c4.17,-10.46 12.84,-17.54 20.53,-16.76z"/>
   <path class="fil0" d="M250.12 0l0 0c28.07,0 51.07,22.31 51.94,50.36l9.79 -0c1.79,-0 3.25,1.45 3.25,3.25l0 13c0,1.79 -1.46,3.25 -3.25,3.25l-110.47 0c-1.79,-0 -3.25,-1.46 -3.25,-3.25l0 -14.62c0,0 0,0 0,0 0,-28.71 23.28,-51.98 51.98,-51.98 0,0 0,0 0,0l0 0z"/>
   <path class="fil5" d="M256.33 321.34l-22.96 0c-0,0 -0.01,0 -0.01,0 -1.52,0 -2.8,-1.16 -2.94,-2.68l-4.6 -47.11 38.06 0 -4.6 47.11c-0.14,1.52 -1.42,2.68 -2.94,2.68 -0,0 -0.01,0 -0.01,0l0 0z"/>
   <path class="fil4" d="M263.82 277.48l-37.94 0c-1.64,-0 -2.96,-1.33 -2.96,-2.96l0 -7.11c0,-1.64 1.33,-2.96 2.96,-2.96l37.94 0c1.64,0 2.96,1.33 2.96,2.96l0 7.11c-0,1.64 -1.33,2.96 -2.96,2.96l-0 0z"/>
   <path class="fil1" d="M245.34 296.07c0.89,0.1 1.78,0.28 2.64,0.52l61.16 -52.45 -3.57 -19.24 28.34 -9.19 9.64 33.45c0.34,1.17 0.51,2.38 0.51,3.6 0,4.45 -2.28,8.6 -6.05,10.98l-77.45 49.01c0,0.09 0,0.18 0,0.27 0,9.42 -7.64,17.05 -17.05,17.05 -9.42,0 -17.05,-7.64 -17.05,-17.05 0,-9.42 7.64,-17.05 17.05,-17.05 0.61,0 1.23,0.04 1.84,0.1l0 0z"/>
   <path class="fil3" d="M309.3 154.84l0 0c8.47,-2.37 16.93,4.07 19.76,15.05l13.6 52.68c1.02,3.95 -0.96,8.15 -4.05,8.59l-36.24 5.21c-2.79,0.4 -5.25,-2.46 -5.35,-6.22l-1.41 -51.84c-0.31,-11.26 5.47,-21.17 13.68,-23.47z"/>
   <path class="fil4" d="M678.49 491.37c-16.64,-22.16 -29.89,-46.85 -39.1,-72.99 -0.26,-0.73 -0.39,-1.49 -0.39,-2.26 0,-2.57 1.41,-4.94 3.68,-6.15l57.09 -30.59c1.01,-0.54 2.13,-0.83 3.28,-0.83 0.96,0 1.9,0.2 2.77,0.58 1.98,0.86 3.46,2.59 4,4.69 6.63,25.2 19.16,48.56 36.47,68.04 1.15,1.29 1.79,2.96 1.79,4.7 0,0.41 -0.04,0.83 -0.11,1.24 -0.37,2.09 -1.68,3.91 -3.56,4.9l-57.09 30.59c-1.01,0.54 -2.14,0.82 -3.29,0.82 -2.17,0 -4.22,-1.01 -5.54,-2.73l0 0z"/>
   <path class="fil6" d="M682.39 488.44c0.4,0.5 1.01,0.79 1.65,0.79 0.34,0 0.68,-0.08 0.99,-0.25l57.09 -30.59c0.56,-0.29 0.95,-0.83 1.06,-1.46 0.02,-0.13 0.03,-0.26 0.03,-0.38 0,-0.54 -0.2,-1.05 -0.56,-1.45 -17.82,-20.07 -30.71,-44.11 -37.54,-70.06 -0.16,-0.65 -0.61,-1.19 -1.23,-1.45 -0.26,-0.12 -0.54,-0.18 -0.83,-0.18 -0.34,0 -0.68,0.09 -0.98,0.25l-57.09 30.59c-0.68,0.37 -1.11,1.08 -1.11,1.86 0,0.22 0.03,0.43 0.1,0.64 9.05,25.68 22.07,49.92 38.42,71.68l-0 0z"/>
   <path class="fil4" d="M703.52 423.03l-31.1 13.73c-0.62,0.27 -1.29,0.41 -1.97,0.41 -1.93,0 -3.68,-1.14 -4.46,-2.9l-0.77 -1.74c-0.27,-0.62 -0.41,-1.29 -0.41,-1.97 0,-1.93 1.14,-3.68 2.9,-4.46l31.1 -13.73c0.62,-0.27 1.29,-0.41 1.97,-0.41 1.93,0 3.68,1.14 4.46,2.9l0.77 1.74c0.27,0.62 0.41,1.29 0.41,1.97 0,1.93 -1.14,3.68 -2.9,4.46l0 0z"/>
   <path class="fil4" d="M714.9 444.15l-31.1 13.73c-0.62,0.27 -1.29,0.41 -1.97,0.41 -1.93,0 -3.68,-1.14 -4.46,-2.9l-0.77 -1.74c-0.27,-0.62 -0.41,-1.29 -0.41,-1.97 0,-1.93 1.14,-3.68 2.9,-4.46l31.1 -13.73c0.62,-0.27 1.29,-0.41 1.97,-0.41 1.93,0 3.68,1.14 4.46,2.9l0.77 1.74c0.27,0.62 0.41,1.29 0.41,1.97 0,1.93 -1.14,3.68 -2.9,4.46l0 0z"/>
   <path class="fil7" d="M641.97 426.55c-4.99,-3.21 -8.01,-8.74 -8.01,-14.68 0,-4.4 1.67,-8.65 4.66,-11.87l-13.11 -186.1 37.78 3.66 1.04 182.25c3.07,3.25 4.79,7.57 4.79,12.04 0,9.69 -7.86,17.55 -17.55,17.55 -3.4,0 -6.74,-0.99 -9.59,-2.85l0 0z"/>
   <path class="fil3" d="M634.05 276.43c-1.79,-1.29 -2.9,-3.32 -3.02,-5.52l-2.77 -50.16c-0.02,-0.37 -0.03,-0.74 -0.03,-1.11 0,-11.12 9.02,-20.14 20.14,-20.14 9.09,0 17.06,6.1 19.44,14.87l12.16 44.84c0.17,0.62 0.25,1.26 0.25,1.91 0,3.3 -2.21,6.19 -5.4,7.06l-34.59 9.38c-0.63,0.17 -1.27,0.26 -1.92,0.26 -1.53,0 -3.03,-0.49 -4.27,-1.39l0 0z"/>
   <polygon class="fil7" points="569.67,655.35 549.75,655.35 540.28,578.53 569.67,578.53 "/>
   <path class="fil2" d="M535.53 649.66l38.41 0 0 24.18 -62.59 0 0 0c0,-0 0,-0 0,-0 0,-13.35 10.83,-24.18 24.18,-24.18l0 0z"/>
   <polygon class="fil7" points="644.4,655.35 624.48,655.35 615.01,578.53 644.4,578.53 "/>
   <path class="fil2" d="M610.26 649.66l38.41 0 0 24.18 -62.59 0 0 0c0,-0 0,-0 0,-0 0,-13.35 10.83,-24.18 24.18,-24.18l0 0z"/>
   <path class="fil2" d="M568.73 616.65l-21.93 -1.05c-3.88,-0.18 -6.94,-3.37 -6.96,-7.25 -5.78,-89.22 -13.79,-184.88 -1.53,-221.84 0,-0.02 0,-0.03 0,-0.05 0,-4.04 3.27,-7.31 7.31,-7.31 0.35,0 0.7,0.03 1.05,0.08l87.71 12.73c3.58,0.5 6.25,3.56 6.26,7.18 11.2,43.76 11.7,123.11 11.28,205.56 0,0.02 0,0.04 0,0.06 0,4.04 -3.27,7.31 -7.31,7.31l-23.64 0c-0.01,-0 -0.02,-0 -0.03,-0 -3.59,0 -6.65,-2.62 -7.19,-6.17l-14.58 -92.71c-0.43,-2.76 -2.82,-4.8 -5.62,-4.8 -2.88,0 -5.3,2.15 -5.65,5.01l-11.58 96.83c-0.45,3.67 -3.56,6.43 -7.26,6.44 -0.11,0 -0.23,-0 -0.35,-0.01z"/>
   <path class="fil3" d="M584.16 399.15c-19.33,-10.74 -34.44,-13.56 -41.72,-14.29 -1.96,-0.19 -3.75,-1.17 -4.96,-2.72 -1.02,-1.29 -1.58,-2.88 -1.58,-4.53 0,-0.33 0.02,-0.67 0.07,-1l21.02 -156.04c2.46,-18.55 14.38,-34.53 31.46,-42.17 6.87,-3.15 14.35,-4.79 21.92,-4.79 10.35,0 20.47,3.07 29.08,8.8 0.72,0.48 1.43,0.97 2.12,1.47 13.85,10.15 22.04,26.3 22.04,43.48 0,4.27 -0.51,8.54 -1.51,12.69 -12.89,52.72 -17.32,139.16 -18.07,155.95 -0.12,2.93 -1.99,5.49 -4.74,6.51 -7.92,2.88 -16.31,4.38 -24.74,4.4 -0.11,0 -0.25,0 -0.37,0 -10.5,0 -20.83,-2.68 -30.01,-7.76l-0 0z"/>
   <circle class="fil7" cx="601.74" cy="117.32" r="39.9"/>
   <path class="fil2" d="M629.98 148.89c-7.44,7.93 -21.27,3.67 -22.24,-7.16 -0.04,-0.39 -0.05,-0.79 -0.05,-1.18 0,-0.45 0.03,-0.9 0.07,-1.35 0.5,-4.8 3.27,-9.15 2.61,-14.22 -0.15,-1.26 -0.62,-2.46 -1.37,-3.49 -5.93,-7.94 -19.86,3.55 -25.45,-3.64 -3.43,-4.41 0.6,-11.35 -2.03,-16.28 -3.48,-6.5 -13.77,-3.3 -20.23,-6.86 -7.18,-3.96 -6.76,-14.99 -2.03,-21.69 5.77,-8.18 15.88,-12.54 25.87,-13.17 9.99,-0.63 19.91,2.07 29.23,5.7 10.59,4.13 21.1,9.83 27.62,19.15 7.93,11.33 8.69,26.56 4.73,39.8 -2.41,8.06 -10.64,17.9 -16.72,24.38z"/>
   <path class="fil0" d="M661.58 187.68c-0.7,-3.28 -6.69,-7.77 -15.27,-11.42 -11.24,-4.56 -23.31,-6.91 -35.45,-6.91 -17.61,0 -34.88,4.93 -49.83,14.22 -1.81,0.1 -3.34,1.4 -3.72,3.17l-28.85 127.61 -3.75 16.62 -2.49 11 -3.75 16.57 -2 8.85c-0.07,0.29 -0.1,0.59 -0.1,0.9 0,2.11 1.61,3.87 3.71,4.06l124.59 10.75c0.11,0 0.24,0.02 0.36,0.02 2.13,-0.01 3.89,-1.67 4.03,-3.8l1.19 -18.05 1.27 -19.3 0.55 -8.37 1.25 -19.25 8.3 -126.45 0 -0.11 -0.02 -0.1z"/>
   <path class="fil7" d="M457.15 195.71c0.2,0.87 0.33,1.77 0.39,2.66l69.79 40.26 16.96 -9.76 18.08 23.67 -36.29 25.86 -79.61 -62.81c-1.89,0.7 -3.9,1.06 -5.92,1.06 -9.41,0 -17.05,-7.64 -17.05,-17.05 0,-9.41 7.64,-17.05 17.05,-17.05 7.91,0 14.79,5.45 16.6,13.16l0 -0z"/>
   <path class="fil3" d="M529.82 235.21c-0.03,-0.26 -0.04,-0.52 -0.04,-0.78 0,-1.94 0.77,-3.79 2.14,-5.16l35.52 -35.53c3.78,-3.78 8.9,-5.9 14.24,-5.9 11.12,0 20.14,9.02 20.14,20.14 0,3.89 -1.13,7.7 -3.25,10.96l-25.29 38.98c-1.35,2.08 -3.66,3.33 -6.13,3.33 -1.41,0 -2.79,-0.41 -3.98,-1.18l-30.06 -19.51c-1.85,-1.2 -3.06,-3.17 -3.29,-5.37l0 0z"/>
   <polygon class="fil4" points="653.29,314.35 652.04,333.6 524.69,330.97 528.45,314.35 "/>
   <polygon class="fil4" points="651.49,341.96 650.22,361.26 518.45,358.53 522.21,341.96 "/>
   <path class="fil0" d="M602.52 39.8l0 0c-28.07,0 -51.07,22.31 -51.94,50.36l-9.79 -0c-1.79,-0 -3.25,1.45 -3.25,3.25l0 13c0,1.79 1.46,3.25 3.25,3.25l110.47 0c1.79,-0 3.25,-1.46 3.25,-3.25l0 -14.62c0,0 0,0 0,0 0,-28.71 -23.28,-51.98 -51.98,-51.98 0,0 0,0 0,0l0 0z"/>
   <path class="fil4" d="M878.11 676.62l-876.88 0c-0.68,-0 -1.23,-0.73 -1.23,-1.63 0,-0.9 0.55,-1.62 1.23,-1.62l876.88 0c0.68,-0 1.23,0.73 1.23,1.62 0,0.9 -0.55,1.62 -1.23,1.62l0 0z"/>
  </g>
 </g>
</svg>
