<?xml version="1.0" encoding="UTF-8"?>
<!DOCTYPE svg PUBLIC "-//W3C//DTD SVG 1.1//EN" "http://www.w3.org/Graphics/SVG/1.1/DTD/svg11.dtd">
<!-- Creator: CorelDRAW 2021 (64-Bit Evaluation Version) -->
<svg xmlns="http://www.w3.org/2000/svg" xml:space="preserve" width="10.1192in" height="6.94705in" version="1.1" style="shape-rendering:geometricPrecision; text-rendering:geometricPrecision; image-rendering:optimizeQuality; fill-rule:evenodd; clip-rule:evenodd"
viewBox="0 0 8651.91 5939.74"
 xmlns:xlink="http://www.w3.org/1999/xlink"
 xmlns:xodm="http://www.corel.com/coreldraw/odm/2003">
 <defs>
  <style type="text/css">
   <![CDATA[
    .fil9 {fill:none;fill-rule:nonzero}
    .fil2 {fill:#373435}
    .fil8 {fill:#FDA57D}
    .fil0 {fill:#3F3D56;fill-rule:nonzero}
    .fil13 {fill:#535461;fill-rule:nonzero}
    .fil12 {fill:#72351C;fill-rule:nonzero}
    .fil4 {fill:#CCCCCC;fill-rule:nonzero}
    .fil10 {fill:#E0E0E0;fill-rule:nonzero}
    .fil1 {fill:#EB4511;fill-rule:nonzero}
    .fil14 {fill:#EEEEEE;fill-rule:nonzero}
    .fil11 {fill:#FDA57D;fill-rule:nonzero}
    .fil7 {fill:black;fill-rule:nonzero;fill-opacity:0.101961}
    .fil5 {fill:url(#id1);fill-rule:nonzero}
    .fil18 {fill:url(#id2);fill-rule:nonzero}
    .fil6 {fill:url(#id3);fill-rule:nonzero}
    .fil17 {fill:url(#id4);fill-rule:nonzero}
    .fil3 {fill:url(#id5);fill-rule:nonzero}
    .fil16 {fill:url(#id6);fill-rule:nonzero}
    .fil15 {fill:url(#id7);fill-rule:nonzero}
   ]]>
  </style>
   <clipPath id="id0" style="clip-rule:nonzero">
    <path d="M7285.47 4779.94l666.56 0 0 659.71c0,47.95 -38.89,86.83 -86.84,86.83l-492.89 0c-47.95,-0 -86.84,-38.89 -86.84,-86.84l0 -659.71z"/>
   </clipPath>
  <linearGradient id="id1" gradientUnits="userSpaceOnUse" x1="6994.05" y1="5100.94" x2="6994.05" y2="4988.86">
   <stop offset="0" style="stop-opacity:1; stop-color:#B02E0C"/>
   <stop offset="1" style="stop-opacity:1; stop-color:#EB4511"/>
  </linearGradient>
  <linearGradient id="id2" gradientUnits="userSpaceOnUse" x1="4876.17" y1="4662.6" x2="4876.17" y2="4272.98">
   <stop offset="0" style="stop-opacity:1; stop-color:#72351C"/>
   <stop offset="0.870588" style="stop-opacity:1; stop-color:#913214"/>
   <stop offset="1" style="stop-opacity:1; stop-color:#B02E0C"/>
  </linearGradient>
  <linearGradient id="id3" gradientUnits="userSpaceOnUse" xlink:href="#id2" x1="7666.04" y1="5235.1" x2="7666.04" y2="4990.05">
  </linearGradient>
  <linearGradient id="id4" gradientUnits="userSpaceOnUse" xlink:href="#id1" x1="3807.72" y1="4449.28" x2="3807.72" y2="4271.09">
  </linearGradient>
  <linearGradient id="id5" gradientUnits="userSpaceOnUse" xlink:href="#id1" x1="7204.74" y1="5248.87" x2="7204.74" y2="5118.87">
  </linearGradient>
  <linearGradient id="id6" gradientUnits="userSpaceOnUse" xlink:href="#id1" x1="4142.71" y1="4684.49" x2="4142.71" y2="4477.79">
  </linearGradient>
  <linearGradient id="id7" gradientUnits="userSpaceOnUse" xlink:href="#id2" x1="4283.7" y1="2342.37" x2="4283.7" y2="11.31">
  </linearGradient>
 </defs>
 <g id="Layer_x0020_1">
  <metadata id="CorelCorpID_0Corel-Layer"/>
  <path class="fil0" d="M1298.84 4833.67c-62.21,236.89 -280.18,384.93 -280.18,384.93 0,0 -117.12,-236.03 -54.92,-472.92 62.21,-236.89 280.18,-384.93 280.18,-384.93 0,0 117.12,236.03 54.92,472.92z"/>
  <path class="fil1" d="M1204.48 4783.56c-174.23,172.13 -193.72,434.9 -193.72,434.9 0,0 262.99,-16.31 437.22,-188.44 174.23,-172.13 193.72,-434.9 193.72,-434.9 0,0 -262.99,16.31 -437.22,188.44z"/>
  <path class="fil1" d="M741.46 5149.24l681.51 0c74.75,-0 135.36,60.61 135.36,135.35l-0 134.5c0,74.74 -60.61,135.35 -135.35,135.35l-681.52 0c-74.74,-0 -135.35,-60.61 -135.35,-135.36l-0.01 -134.49c0.01,-74.75 60.62,-135.36 135.36,-135.36z"/>
  <path class="fil1" d="M7952.03 4913.25c-95.7,-0.01 -173.31,77.6 -173.31,173.3 0,95.7 77.61,173.31 173.31,173.31 95.7,0 173.31,-77.61 173.31,-173.31 0,0 0,0 0,0 0,-95.7 -77.61,-173.31 -173.31,-173.31l0 0.01z"/>
  <path class="fil1" d="M7285.47 4779.94l666.56 0 0 659.71c0,47.95 -38.89,86.83 -86.84,86.83l-492.89 0c-47.95,-0 -86.84,-38.89 -86.84,-86.84l0 -659.71z"/>
  <g style="clip-path:url(#id0)">
   <g id="_1624878730016">
    <g>
     <path id="_1" class="fil2" d="M7393.9 5197.78l-26.91 70.6 -49.73 0 -26.67 -70.32c-0.11,0.93 -0.25,1.85 -0.39,2.78l-0.58 3.67 2.43 0 -5.01 15.24c-4.92,14.96 -13.91,27.2 -26.56,36.57 -13.82,10.23 -30.16,14.3 -47.19,14.3 -14.41,0 -28.25,-3.18 -40.81,-10.32 -10.54,-5.99 -19.08,-14.09 -25.61,-24.08l0 32.16 -51.48 0 0 -4.38c-0.37,0.18 -0.74,0.35 -1.12,0.52 -8.77,3.93 -18.07,5.85 -27.68,5.85 -11.99,0 -23.61,-2.43 -34.27,-8.02 -10.69,-5.6 -18.96,-13.93 -24.84,-24.47 -0.86,-1.54 -1.64,-3.11 -2.36,-4.7l0 35.21 -51.23 0 0 -87.96c0,-6.9 -1.12,-14.96 -6.04,-20.21 -4.4,-4.7 -10.27,-6.11 -16.56,-6.11 -6.37,0 -12.26,1.45 -16.75,6.17 -4.96,5.23 -6.1,13.24 -6.1,20.15l0 87.96 -51.48 0 0 -159.81 19.5 0 -38.2 -100.71 45.48 0 17.83 51.33 17.83 -51.33 17.92 0c-0.82,-2.46 -1.24,-5.08 -1.24,-7.8 0,-6.46 2.34,-12.34 6.92,-16.91 4.57,-4.56 10.45,-6.91 16.9,-6.91 3.85,0 7.49,0.86 10.76,2.54l0 -2.53 74.36 0 0 45.97c3.12,-3.16 6.65,-5.94 10.59,-8.29 8.55,-5.11 17.98,-7.58 27.94,-7.58 7,0 13.9,1.1 20.34,3.72l0 -2.21 42.46 0 0 55.33c1.66,-1.39 3.47,-2.63 5.42,-3.7 5.54,-3.06 11.63,-4.45 17.94,-4.45 5.53,0 10.93,1.09 15.9,3.55 0.75,0.37 1.48,0.77 2.19,1.2 1.91,-1.01 3.91,-1.84 5.98,-2.52 4.55,-1.5 9.27,-2.22 14.06,-2.23 5.48,0 10.87,0.96 15.65,3.35l0 -22.09 29.49 0 0 22.17c4.76,-2.32 9.93,-3.42 15.29,-3.42 2.68,0 5.32,0.28 7.88,0.84l0 -0.49 8.87 0c0.92,-4.63 3.01,-8.88 6.46,-12.37 5.01,-5.07 11.64,-7.16 18.65,-7.16 2.89,0 5.75,0.41 8.51,1.26 3.02,0.92 5.83,2.35 8.24,4.39l6.73 5.66 -3.58 7.91c0.56,-0.02 1.12,-0.03 1.69,-0.03 8.06,-0 15.9,2.07 21.9,7.69 0.32,0.3 0.63,0.6 0.93,0.91 1.8,-1.58 3.79,-2.96 5.94,-4.15 5.54,-3.06 11.63,-4.45 17.94,-4.45 5.53,0 10.93,1.09 15.89,3.55 1.42,0.7 2.77,1.5 4.04,2.4 0.8,-0.53 1.62,-1.03 2.47,-1.5 5.54,-3.06 11.64,-4.45 17.94,-4.45 3.16,0 6.27,0.35 9.29,1.12 -0.3,-1.24 -0.45,-2.52 -0.45,-3.83 0,-4.3 1.7,-8.27 4.73,-11.3 3.08,-3.08 7.13,-4.73 11.48,-4.73 4.28,0 8.27,1.57 11.35,4.55 3.11,3.01 4.84,6.99 4.86,11.32l16.56 -14.98 47.15 0 -23.8 18.21 20.25 0 0 0.11c2,-0.32 4.03,-0.47 6.08,-0.47 8.31,0 16.07,2.53 22.06,8.42 4.39,4.32 6.87,9.67 7.96,15.45 11.68,-26.41 32.36,-48.49 59.22,-61.73 10.5,-7 21.98,-11.92 33.15,-17.71 9.03,-4.69 18.34,-10.23 24.53,-18.53l9.99 -13.4 9.07 14.04c2.42,3.74 3.6,7.97 3.69,12.22 6.55,-1.33 12.57,-3.84 15.84,-8.6l11.93 -17.38 8.31 19.37c2.27,5.3 3.45,11.02 3.45,16.79 0,4.33 -0.66,8.6 -1.93,12.68 9.98,4.16 18.65,11.55 22.85,21.46 25.33,23.7 39.67,56.63 39.67,91.44 0,8.71 -0.9,17.4 -2.69,25.92 0.55,1.27 1.02,2.58 1.42,3.89 1.18,3.95 1.72,8.11 1.72,12.23 0,10.87 -4.19,24.61 -15.41,28.75 -1.32,0.49 -2.69,0.81 -4.08,0.96 -18.31,41.74 -59.81,69.35 -106.19,69.35 -46.37,0 -87.89,-27.61 -106.19,-69.35 -1.33,-0.14 -2.63,-0.45 -3.89,-0.9 -1.36,-0.48 -2.62,-1.11 -3.77,-1.85l0 69.86 -51.73 0 0 -6.94c-0.86,0.49 -1.74,0.96 -2.62,1.42 -10.46,5.44 -21.89,7.76 -33.62,7.76 -13.75,0 -26.64,-3.55 -38.33,-10.78 -11.82,-7.31 -20.87,-17.46 -27.35,-29.75 -5.35,-10.16 -8.34,-21.05 -9.42,-32.3z"/>
     <g>
      <path class="fil3" d="M6937.48 5118.96c10.74,0 20.37,2.23 28.88,6.69 8.51,4.46 15.17,11.07 19.96,19.83 4.79,8.76 7.19,19.34 7.19,31.73l0 80.57 -28.01 0 0 -76.35c0,-12.23 -3.06,-21.61 -9.17,-28.14 -6.12,-6.53 -14.46,-9.79 -25.04,-9.79 -10.58,0 -18.96,3.26 -25.16,9.79 -6.2,6.53 -9.3,15.91 -9.3,28.14l0 76.35 -28.26 0 0 -136.59 28.26 0 0 15.62c4.63,-5.62 10.53,-10 17.73,-13.14 7.19,-3.14 14.83,-4.71 22.93,-4.71l0 0zm197.77 2.23l0 136.59 -28.26 0 0 -16.12c-4.46,5.62 -10.29,10.04 -17.48,13.27 -7.19,3.22 -14.83,4.83 -22.93,4.83 -10.74,0 -20.37,-2.23 -28.88,-6.69 -8.51,-4.46 -15.2,-11.07 -20.08,-19.83 -4.88,-8.76 -7.31,-19.33 -7.31,-31.73l0 -80.32 28.01 0 0 76.11c0,12.23 3.06,21.61 9.17,28.14 6.11,6.53 14.46,9.79 25.03,9.79 10.58,0 18.96,-3.26 25.17,-9.79 6.19,-6.53 9.3,-15.91 9.3,-28.14l0 -76.11 28.26 0 -0.01 0zm144.47 64.95c0,5.12 -0.33,9.75 -0.99,13.89l-104.36 0c0.82,10.91 4.88,19.67 12.15,26.28 7.27,6.61 16.19,9.92 26.77,9.92 15.2,0 25.95,-6.36 32.23,-19.09l30.49 0c-4.13,12.56 -11.61,22.85 -22.44,30.86 -10.83,8.01 -24.25,12.02 -40.28,12.02 -13.06,0 -24.75,-2.93 -35.08,-8.8 -10.33,-5.87 -18.43,-14.13 -24.29,-24.79 -5.87,-10.66 -8.8,-23.01 -8.8,-37.06 0,-14.05 2.85,-26.4 8.55,-37.06 5.7,-10.66 13.72,-18.88 24.05,-24.66 10.33,-5.78 22.19,-8.67 35.58,-8.67 12.89,0 24.37,2.81 34.46,8.43 10.08,5.62 17.93,13.51 23.55,23.67 5.62,10.16 8.43,21.86 8.43,35.08l-0.01 -0.01zm-29.5 -8.92c-0.16,-10.41 -3.88,-18.76 -11.16,-25.04 -7.27,-6.28 -16.28,-9.42 -27.02,-9.42 -9.75,0 -18.1,3.1 -25.04,9.3 -6.94,6.2 -11.07,14.59 -12.39,25.16l75.61 0 0 -0zm92.16 55.28l38.67 -111.31 30 0 -52.06 136.59 -33.72 0 -51.81 -136.59 30.24 0 38.67 111.31zm62.66 -43.63c0,-13.72 2.85,-25.87 8.55,-36.44 5.7,-10.57 13.47,-18.8 23.3,-24.66 9.84,-5.87 20.7,-8.8 32.6,-8.8 10.74,0 20.12,2.11 28.14,6.32 8.01,4.21 14.42,9.46 19.21,15.74l0 -19.83 28.51 0 0 136.59 -28.51 0 0 -20.33c-4.79,6.45 -11.32,11.82 -19.58,16.11 -8.26,4.3 -17.69,6.45 -28.26,6.45 -11.73,0 -22.48,-3.02 -32.22,-9.04 -9.75,-6.04 -17.48,-14.46 -23.18,-25.29 -5.7,-10.83 -8.55,-23.1 -8.55,-36.81l0 -0zm111.8 0.5c0,-9.42 -1.94,-17.6 -5.83,-24.54 -3.88,-6.94 -8.96,-12.23 -15.25,-15.86 -6.28,-3.64 -13.05,-5.46 -20.33,-5.46 -7.27,0 -14.05,1.77 -20.33,5.33 -6.28,3.55 -11.36,8.76 -15.25,15.62 -3.88,6.86 -5.83,15 -5.83,24.42 0,9.42 1.94,17.69 5.83,24.79 3.88,7.11 9,12.52 15.37,16.24 6.36,3.72 13.1,5.58 20.21,5.58 7.27,0 14.05,-1.82 20.33,-5.46 6.28,-3.64 11.36,-8.97 15.25,-15.99 3.88,-7.03 5.83,-15.25 5.83,-24.67l0 0.01z"/>
      <path class="fil4" d="M7169.72 5114.94c-4.6,0 -8.71,-1 -12.33,-3.01 -3.63,-2 -6.47,-4.82 -8.53,-8.44 -2.06,-3.63 -3.09,-7.71 -3.09,-12.24 0,-4.53 1.03,-8.61 3.09,-12.2 2.06,-3.6 4.91,-6.4 8.53,-8.4 3.63,-2 7.74,-3.01 12.33,-3.01 4.01,0 7.59,0.78 10.74,2.35 3.15,1.56 5.64,3.84 7.47,6.85l-4.69 3.18c-1.53,-2.3 -3.48,-4.02 -5.84,-5.17 -2.36,-1.14 -4.92,-1.72 -7.69,-1.72 -3.36,0 -6.38,0.75 -9.07,2.26 -2.68,1.5 -4.77,3.64 -6.27,6.41 -1.5,2.77 -2.26,5.92 -2.26,9.46 0,3.6 0.75,6.77 2.26,9.5 1.5,2.74 3.6,4.86 6.27,6.37 2.68,1.5 5.7,2.26 9.07,2.26 2.77,0 5.34,-0.56 7.69,-1.68 2.36,-1.12 4.3,-2.83 5.84,-5.13l4.69 3.18c-1.83,3 -4.33,5.29 -7.51,6.85 -3.18,1.56 -6.75,2.34 -10.7,2.34l-0 0zm38.13 -47.3c6.07,0 10.72,1.52 13.97,4.55 3.24,3.04 4.86,7.53 4.86,13.48l0 28.82 -6.01 0 0 -7.25c-1.42,2.42 -3.49,4.31 -6.23,5.66 -2.74,1.35 -6,2.04 -9.77,2.04 -5.19,0 -9.31,-1.24 -12.38,-3.71 -3.07,-2.47 -4.6,-5.75 -4.6,-9.81 0,-3.95 1.43,-7.13 4.29,-9.55 2.86,-2.42 7.41,-3.63 13.66,-3.63l14.77 0 0 -2.83c0,-4.01 -1.12,-7.06 -3.36,-9.15 -2.24,-2.09 -5.51,-3.14 -9.81,-3.14 -2.95,0 -5.78,0.48 -8.49,1.46 -2.71,0.97 -5.04,2.31 -6.98,4.02l-2.83 -4.69c2.36,-2 5.19,-3.55 8.49,-4.64 3.3,-1.09 6.78,-1.64 10.43,-1.64l-0 -0zm-2.21 42.35c3.54,0 6.57,-0.81 9.11,-2.43 2.53,-1.62 4.42,-3.96 5.66,-7.03l0 -7.6 -14.59 0c-7.96,0 -11.93,2.77 -11.93,8.31 0,2.71 1.03,4.84 3.09,6.41 2.06,1.56 4.95,2.34 8.66,2.34l0 -0zm29.46 -61.09l6.28 0 0 65.6 -6.28 0 0 -65.6zm55.64 44.3l-38.9 0c0.35,4.83 2.21,8.74 5.57,11.71 3.36,2.98 7.6,4.46 12.73,4.46 2.89,0 5.54,-0.52 7.96,-1.55 2.42,-1.03 4.51,-2.55 6.27,-4.55l3.54 4.07c-2.06,2.47 -4.64,4.36 -7.74,5.66 -3.09,1.3 -6.5,1.95 -10.21,1.95 -4.78,0 -9,-1.02 -12.69,-3.05 -3.69,-2.04 -6.56,-4.85 -8.62,-8.44 -2.06,-3.6 -3.09,-7.66 -3.09,-12.2 0,-4.54 0.99,-8.61 2.96,-12.2 1.97,-3.6 4.69,-6.4 8.13,-8.4 3.45,-2 7.32,-3.01 11.62,-3.01 4.31,0 8.16,1.01 11.59,3.01 3.42,2 6.1,4.79 8.05,8.35 1.95,3.56 2.92,7.65 2.92,12.24l-0.09 1.95 0.01 0zm-22.46 -20.16c-4.48,0 -8.23,1.43 -11.27,4.29 -3.04,2.86 -4.76,6.59 -5.17,11.19l32.97 0c-0.41,-4.6 -2.14,-8.32 -5.17,-11.19 -3.03,-2.86 -6.82,-4.29 -11.36,-4.29l0.01 0zm42.11 -19.27c-2.71,0 -4.76,0.74 -6.15,2.21 -1.38,1.47 -2.07,3.65 -2.07,6.54l0 5.48 14.32 0 0 5.31 -14.14 0 0 41.19 -6.28 0 0 -41.19 -8.31 0 0 -5.31 8.31 0 0 -5.75c0,-4.24 1.23,-7.6 3.67,-10.08 2.45,-2.47 5.91,-3.71 10.38,-3.71 1.77,0 3.48,0.25 5.13,0.75 1.65,0.5 3.03,1.23 4.15,2.17l-2.12 4.68c-1.83,-1.53 -4.12,-2.3 -6.89,-2.3l-0 0zm21.33 13.88c6.07,0 10.73,1.52 13.97,4.55 3.24,3.04 4.86,7.53 4.86,13.48l0 28.82 -6.01 0 0 -7.25c-1.42,2.42 -3.49,4.31 -6.23,5.66 -2.74,1.35 -6,2.04 -9.77,2.04 -5.19,0 -9.31,-1.24 -12.38,-3.71 -3.07,-2.47 -4.6,-5.75 -4.6,-9.81 0,-3.95 1.43,-7.13 4.29,-9.55 2.86,-2.42 7.41,-3.63 13.66,-3.63l14.76 0 0 -2.83c0,-4.01 -1.12,-7.06 -3.36,-9.15 -2.24,-2.09 -5.51,-3.14 -9.81,-3.14 -2.95,0 -5.78,0.48 -8.49,1.46 -2.71,0.97 -5.04,2.31 -6.98,4.02l-2.83 -4.69c2.36,-2 5.18,-3.55 8.49,-4.64 3.3,-1.09 6.78,-1.64 10.43,-1.64l-0.01 -0zm-2.21 42.35c3.53,0 6.57,-0.81 9.1,-2.43 2.53,-1.62 4.42,-3.96 5.66,-7.03l0 -7.6 -14.59 0c-7.96,0 -11.94,2.77 -11.94,8.31 0,2.71 1.03,4.84 3.09,6.41 2.06,1.56 4.95,2.34 8.67,2.34l0 -0zm48.92 4.95c-4.6,0 -8.71,-1 -12.33,-3.01 -3.63,-2 -6.47,-4.82 -8.53,-8.44 -2.06,-3.63 -3.09,-7.71 -3.09,-12.24 0,-4.53 1.03,-8.61 3.09,-12.2 2.06,-3.6 4.91,-6.4 8.53,-8.4 3.63,-2 7.74,-3.01 12.33,-3.01 4.01,0 7.59,0.78 10.74,2.35 3.15,1.56 5.65,3.84 7.47,6.85l-4.68 3.18c-1.53,-2.3 -3.48,-4.02 -5.84,-5.17 -2.36,-1.14 -4.92,-1.72 -7.69,-1.72 -3.36,0 -6.38,0.75 -9.07,2.26 -2.68,1.5 -4.77,3.64 -6.28,6.41 -1.5,2.77 -2.25,5.92 -2.25,9.46 0,3.6 0.75,6.77 2.25,9.5 1.5,2.74 3.6,4.86 6.28,6.37 2.68,1.5 5.7,2.26 9.07,2.26 2.77,0 5.33,-0.56 7.69,-1.68 2.36,-1.12 4.3,-2.83 5.84,-5.13l4.68 3.18c-1.83,3 -4.33,5.29 -7.51,6.85 -3.18,1.56 -6.75,2.34 -10.69,2.34l-0 0zm40.34 0c-4.6,0 -8.71,-1 -12.33,-3.01 -3.63,-2 -6.47,-4.82 -8.53,-8.44 -2.06,-3.63 -3.09,-7.71 -3.09,-12.24 0,-4.53 1.03,-8.61 3.09,-12.2 2.06,-3.6 4.91,-6.4 8.53,-8.4 3.63,-2 7.74,-3.01 12.33,-3.01 4.01,0 7.59,0.78 10.74,2.35 3.15,1.56 5.64,3.84 7.47,6.85l-4.69 3.18c-1.53,-2.3 -3.48,-4.02 -5.84,-5.17 -2.36,-1.14 -4.92,-1.72 -7.69,-1.72 -3.36,0 -6.38,0.75 -9.07,2.26 -2.68,1.5 -4.77,3.64 -6.27,6.41 -1.5,2.77 -2.26,5.92 -2.26,9.46 0,3.6 0.75,6.77 2.26,9.5 1.5,2.74 3.6,4.86 6.27,6.37 2.68,1.5 5.7,2.26 9.07,2.26 2.77,0 5.34,-0.56 7.69,-1.68 2.36,-1.12 4.31,-2.83 5.84,-5.13l4.69 3.18c-1.83,3 -4.33,5.29 -7.51,6.85 -3.18,1.56 -6.75,2.34 -10.7,2.34l-0 0zm21.86 -46.94l6.27 0 0 46.51 -6.27 0 0 -46.51zm3.18 -10.17c-1.3,0 -2.38,-0.44 -3.27,-1.33 -0.88,-0.88 -1.33,-1.95 -1.33,-3.18 0,-1.18 0.44,-2.21 1.33,-3.09 0.88,-0.88 1.97,-1.33 3.27,-1.33 1.3,0 2.39,0.43 3.27,1.28 0.89,0.86 1.33,1.87 1.33,3.05 0,1.3 -0.44,2.38 -1.33,3.27 -0.88,0.88 -1.97,1.33 -3.27,1.33zm30.97 57.11c-4.48,0 -8.52,-1.02 -12.11,-3.05 -3.6,-2.04 -6.43,-4.85 -8.49,-8.44 -2.06,-3.6 -3.09,-7.66 -3.09,-12.2 0,-4.53 1.03,-8.61 3.09,-12.2 2.06,-3.6 4.89,-6.4 8.49,-8.4 3.6,-2 7.63,-3.01 12.11,-3.01 4.48,0 8.52,1.01 12.11,3.01 3.6,2 6.41,4.8 8.44,8.4 2.04,3.6 3.05,7.66 3.05,12.2 0,4.54 -1.02,8.61 -3.05,12.2 -2.04,3.6 -4.85,6.41 -8.44,8.44 -3.6,2.03 -7.63,3.05 -12.11,3.05zm0 -5.57c3.3,0 6.26,-0.75 8.88,-2.26 2.62,-1.5 4.67,-3.64 6.15,-6.41 1.47,-2.77 2.21,-5.92 2.21,-9.46 0,-3.54 -0.74,-6.69 -2.21,-9.46 -1.47,-2.77 -3.52,-4.91 -6.15,-6.41 -2.62,-1.5 -5.58,-2.26 -8.88,-2.26 -3.3,0 -6.26,0.75 -8.89,2.26 -2.62,1.5 -4.68,3.64 -6.19,6.41 -1.5,2.77 -2.26,5.92 -2.26,9.46 0,3.54 0.75,6.69 2.26,9.46 1.5,2.77 3.56,4.91 6.19,6.41 2.62,1.5 5.59,2.26 8.89,2.26zm6.27 -59.59l8.4 0 -14.32 10.96 -6.19 0 12.11 -10.96zm45.2 17.86c5.84,0 10.48,1.7 13.93,5.08 3.45,3.39 5.17,8.32 5.17,14.81l0 26.96 -6.27 0 0 -26.34c0,-4.83 -1.21,-8.52 -3.63,-11.05 -2.42,-2.53 -5.86,-3.8 -10.34,-3.8 -5.01,0 -8.97,1.49 -11.89,4.46 -2.92,2.98 -4.37,7.09 -4.37,12.33l0 24.4 -6.28 0 0 -46.51 6.01 0 0 8.58c1.71,-2.83 4.08,-5.03 7.12,-6.58 3.03,-1.56 6.56,-2.35 10.57,-2.35l-0.01 0z"/>
      <path class="fil5" d="M6901.57 5095.57l26.09 -75.1 20.24 0 -35.13 92.16 -22.75 0 -34.96 -92.16 20.41 0 26.09 75.1zm58.34 -82.29c-3.46,0 -6.36,-1.17 -8.7,-3.51 -2.34,-2.34 -3.51,-5.24 -3.51,-8.7 0,-3.46 1.17,-6.36 3.51,-8.7 2.34,-2.34 5.24,-3.51 8.7,-3.51 3.34,0 6.19,1.17 8.53,3.51 2.34,2.34 3.51,5.24 3.51,8.7 0,3.46 -1.17,6.36 -3.51,8.7 -2.34,2.34 -5.19,3.51 -8.53,3.51zm9.36 7.19l0 92.16 -19.07 0 0 -92.16 19.07 0zm32.08 -31.61l0 123.77 -19.07 0 0 -123.77 19.07 0zm32.07 0l0 123.77 -19.07 0 0 -123.77 19.07 0zm6.65 77.27c0,-9.25 1.93,-17.45 5.77,-24.59 3.85,-7.14 9.09,-12.68 15.72,-16.64 6.63,-3.96 13.96,-5.94 21.99,-5.94 7.25,0 13.58,1.42 18.99,4.26 5.41,2.84 9.73,6.38 12.96,10.62l0 -13.38 19.24 0 0 92.16 -19.24 0 0 -13.71c-3.23,4.35 -7.64,7.97 -13.21,10.87 -5.58,2.9 -11.93,4.35 -19.07,4.35 -7.92,0 -15.17,-2.04 -21.74,-6.11 -6.58,-4.07 -11.79,-9.76 -15.64,-17.06 -3.84,-7.3 -5.77,-15.58 -5.77,-24.84l0 0.01zm75.43 0.34c0,-6.36 -1.31,-11.88 -3.93,-16.56 -2.62,-4.68 -6.05,-8.25 -10.29,-10.7 -4.23,-2.45 -8.81,-3.68 -13.71,-3.68 -4.9,0 -9.48,1.19 -13.72,3.6 -4.23,2.4 -7.66,5.91 -10.29,10.54 -2.62,4.63 -3.93,10.12 -3.93,16.47 0,6.36 1.31,11.93 3.93,16.72 2.62,4.8 6.08,8.45 10.37,10.96 4.3,2.51 8.84,3.76 13.63,3.76 4.9,0 9.48,-1.23 13.71,-3.68 4.23,-2.45 7.66,-6.05 10.29,-10.79 2.62,-4.74 3.93,-10.29 3.93,-16.64l0 0.01z"/>
      <g>
       <path class="fil6" d="M7784.44 5130.53c0,-33.7 -14.68,-63.96 -37.98,-84.77 -3.66,-11.93 -17.39,-19.77 -30.34,-20.36 4.98,-5.65 7.73,-12.92 7.73,-20.45 0,-4.19 -0.86,-8.35 -2.51,-12.21 -9.34,13.62 -28.53,15.06 -45.04,15.17 7.12,-2.76 10.33,-12.63 6.19,-19.05 -14.61,19.58 -40.97,25.66 -61.17,39.38 -37.94,18.4 -64.11,57.29 -64.11,102.29 0,19.05 4.7,37 12.98,52.77 12.14,44.32 52.7,76.71 100.63,76.71 48.04,0 88.52,-32.49 100.64,-76.72 8.29,-15.77 12.98,-33.72 12.98,-52.77z"/>
       <path id="_1111" class="fil7" d="M7619.25 5105.24c24.41,20.94 70.16,41.29 145.28,9.88l-0.66 -1.04c-72.85,30.22 -117.98,11.7 -142.75,-8.59 -0.63,-0.08 -1.25,-0.16 -1.87,-0.26z"/>
       <path class="fil8" d="M7568.06 5154.62c-0.52,-0.16 -1.05,-0.25 -1.6,-0.25 -3.61,0 -6.76,3.7 -8.43,9.18 -0.81,2.66 -1.28,5.74 -1.28,9.02 0,8.88 3.4,16.28 7.88,17.88 0.59,0.21 1.2,0.32 1.82,0.32 0.5,0 0.99,-0.07 1.46,-0.21 0.03,-0.01 0.07,-0.02 0.1,-0.03 3.59,-1.09 6.52,-5.87 7.64,-12.19l53.02 43.15c0,0 38.07,-24.29 89.92,0l47.53 -42.32c1.24,5.93 4.08,10.36 7.53,11.37 0.03,0.01 0.07,0.02 0.1,0.03 0.46,0.12 0.93,0.19 1.41,0.19 0.65,0 1.28,-0.12 1.89,-0.34 4.46,-1.65 7.82,-9.02 7.82,-17.86 0,-3.23 -0.45,-6.26 -1.24,-8.89 -1.66,-5.55 -4.83,-9.31 -8.47,-9.31 -0.53,0 -1.04,0.08 -1.55,0.23 -2.36,-13.51 -7.31,-26.12 -14.33,-37.3 -72,28.31 -116.19,8.44 -140.03,-12 -8.46,-1.27 -15.51,-3.9 -20.01,-8.54 -16.02,15.11 -27.26,35.23 -31.2,57.86zm102.63 66.88c-20.3,0 -36.76,4.11 -36.76,9.19 0,5.07 16.46,9.19 36.76,9.19 20.3,0 36.76,-4.12 36.76,-9.19 0,-5.08 -16.46,-9.19 -36.76,-9.19z"/>
      </g>
     </g>
    </g>
   </g>
  </g>
  <path class="fil9" d="M7285.47 4779.94l666.56 0 0 659.71c0,47.95 -38.89,86.83 -86.84,86.83l-492.89 0c-47.95,-0 -86.84,-38.89 -86.84,-86.84l0 -659.71z"/>
  <rect class="fil10" x="-0" y="5526.48" width="8651.91" height="293.29"/>
  <path class="fil1" d="M4358.11 4690.39c435.48,0 1147.26,-129.8 1485.54,-352.8 -36.64,-200.25 -120.95,-524.29 -200.84,-814.28 -101.75,-369.32 -743.92,-625.36 -1127,-625.36l-369.16 0c-384.27,0 -1027.37,257.52 -1127.83,628.43 -76.56,282.65 -158.29,593.06 -198.95,775.31 348.55,244.91 1079.9,388.71 1538.24,388.71z"/>
  <path class="fil7" d="M4001.51 2371.1l663.32 0 0 530.66c0,183.14 -148.52,331.66 -331.66,331.66l0 0c-183.14,-0 -331.66,-148.52 -331.66,-331.66l-0 -530.66 0 0z"/>
  <path class="fil11" d="M4096.65 2346.53l473.04 0c52.54,0 95.14,42.61 95.14,95.15l0 435.52c0,183.14 -148.52,331.66 -331.66,331.66l0 0c-183.14,-0 -331.66,-148.52 -331.66,-331.66l-0 -435.52c0.01,-52.54 42.61,-95.14 95.15,-95.14l-0 -0z"/>
  <circle class="fil12" cx="4317.49" cy="1482.84" r="1080.82"/>
  <path class="fil7" d="M3969.93 2644.58c111.45,41.63 229.85,63.04 348.85,63.04 117.18,0 233.76,-20.69 343.64,-61.08l0 -85.08 -692.49 -0.04 0 83.16z"/>
  <circle class="fil11" cx="4317.49" cy="1698.3" r="992.65"/>
  <path class="fil7" d="M3610.42 795.38c0,0 418.34,849.17 1598.43,355.9l-274.73 -430.83 -487.03 -174.83 -836.68 249.76z"/>
  <path class="fil12" d="M3610.42 782.89c0,0 418.34,849.17 1598.44,355.9l-274.74 -430.83 -487.02 -174.83 -836.68 249.76z"/>
  <path class="fil12" d="M3606.71 725.52c28.12,-87.23 77.06,-166.69 142.17,-231.17 195.28,-193.01 515.34,-233.75 679.53,-453.82 39.42,61.07 8.92,154.99 -58.86,181.24 157.09,-1.02 339.61,-14.78 428.51,-144.31 15.7,36.63 23.85,76.21 23.85,116.12 0,71.62 -26.15,140.84 -73.49,194.54 139.42,6.33 288.19,100.95 297.2,240.23 6.01,92.79 -52.18,180.64 -128.42,233.85 -76.25,53.21 -168.5,77.64 -259.3,97.66 -265.07,58.45 -1224.13,303.39 -1051.18,-234.35z"/>
  <path class="fil12" d="M5310.1 1706.99l-26.32 0 -512 455.8c-493.27,-231.03 -855.41,0 -855.41,0l-536.98 -437.07 -54.14 6.8c15.12,537.01 455.02,964.67 992.23,964.67 547.15,0 991.29,-443.05 992.62,-990.2l0 -0zm-994.12 630.63c-193.11,0 -349.66,-39.13 -349.66,-87.41 0,-48.28 156.55,-87.42 349.66,-87.42 193.11,0 349.66,39.13 349.66,87.42 0,48.28 -156.55,87.41 -349.66,87.41z"/>
  <ellipse class="fil11" cx="3324.45" cy="1697.36" rx="92.34" ry="173.13"/>
  <ellipse class="fil11" cx="5310" cy="1697.36" rx="92.34" ry="173.13"/>
  <path class="fil13" d="M2791.91 3446.83l3068.08 0c131.97,-0 239,107.02 239,239l0 1601.66c0,131.97 -107.03,239 -239,239l-3068.08 0c-131.97,-0 -239,-107.03 -239,-239l-0 -1601.65c0,-131.98 107.03,-239 239,-239z"/>
  <rect class="fil10" x="366.6" y="5819.77" width="7918.7" height="119.98"/>
  <polygon class="fil7" points="366.6,5859.76 8285.31,5859.76 8285.31,5819.76 366.6,5819.76 "/>
  <path class="fil7" d="M7832.05 4779.94l0 616.56c-0,71.77 -58.21,129.97 -129.98,129.97l66.66 0.01c71.77,-0 129.98,-58.21 129.98,-129.98l0 -616.56 -66.66 0z"/>
  <path class="fil14" d="M7417.01 4282.99c-11.24,1.93 -23.93,4.96 -29.44,14.95 -8.74,15.85 7.1,33.72 21.56,44.61 26.71,20.12 54.86,39.89 73.02,67.97 18.16,28.08 23.86,67.28 4.01,94.19 -25.92,35.15 -87.75,42.7 -93.73,85.96 -3.84,27.77 20.17,51.47 44.49,65.4 60.04,34.39 137.44,43.57 180.93,97.39 17.99,-36.99 58.23,-58.38 98.34,-67.51 40.11,-9.13 81.79,-8.45 122.45,-14.65 13.13,-2 27.92,-6.01 33.79,-17.92 11.37,-23.07 -21.03,-50.74 -9.85,-73.9 8.51,-17.63 33.51,-16.26 51.77,-23.32 29.73,-11.5 41.99,-49.76 33.55,-80.49 -8.44,-30.74 -32.27,-54.76 -57.34,-74.45 -67.55,-53.08 -148.77,-84.29 -230.91,-106.74 -38.21,-10.44 -83.06,-26.82 -122.74,-28.4 -38.31,-1.52 -82,10.45 -119.91,16.93z"/>
  <g id="_1624878674816">
   <path class="fil15" d="M5410.04 1347.65c0,-320.56 -139.59,-608.47 -361.26,-806.4 -34.85,-113.45 -165.38,-188.06 -288.64,-193.65 47.34,-53.7 73.49,-122.92 73.49,-194.54 0,-39.91 -8.15,-79.49 -23.85,-116.12 -88.9,129.52 -271.41,143.29 -428.51,144.31 67.78,-26.25 98.29,-120.17 58.86,-181.24 -139.01,186.33 -389.74,244.12 -581.88,374.59 -360.96,175.03 -609.86,544.97 -609.86,973.06 0,181.24 44.65,352.03 123.49,502.04 115.49,421.6 501.32,729.76 957.32,729.76 457.02,0 842.1,-309.13 957.37,-729.82 78.82,-150 123.46,-320.76 123.46,-501.98z"/>
   <path id="_1111_0" class="fil7" d="M3838.58 1107.08c232.2,199.18 667.4,392.74 1382.01,94.04l-6.31 -9.9c-693.01,287.51 -1122.28,111.32 -1357.91,-81.71 -6,-0.74 -11.93,-1.55 -17.79,-2.43z"/>
   <path class="fil8" d="M3351.64 1576.77c-4.94,-1.53 -10.02,-2.33 -15.2,-2.33 -34.33,0 -64.29,35.14 -80.21,87.28 -7.72,25.3 -12.13,54.61 -12.13,85.85 0,84.5 32.28,154.86 74.98,170.08 5.62,2 11.42,3.05 17.35,3.05 4.74,0 9.39,-0.67 13.94,-1.96 0.32,-0.09 0.63,-0.18 0.95,-0.28 34.13,-10.37 61.98,-55.81 72.71,-115.96l504.34 410.5c0,0 362.14,-231.02 855.41,0l452.16 -402.53c11.75,56.45 38.84,98.51 71.67,108.14 0.33,0.1 0.65,0.19 0.98,0.28 4.38,1.19 8.86,1.81 13.41,1.81 6.15,0 12.15,-1.12 17.96,-3.27 42.4,-15.67 74.38,-85.77 74.38,-169.86 0,-30.73 -4.27,-59.59 -11.76,-84.61 -15.81,-52.83 -45.97,-88.52 -80.58,-88.52 -5,0 -9.91,0.75 -14.7,2.18 -22.43,-128.48 -69.56,-248.46 -136.32,-354.88 -684.96,269.33 -1105.34,80.28 -1332.11,-114.19 -80.44,-12.02 -147.59,-37.15 -190.38,-81.24 -152.39,143.74 -259.29,335.19 -296.84,550.47zm976.34 636.24c-193.11,0 -349.65,39.14 -349.65,87.42 0,48.28 156.54,87.41 349.65,87.41 193.11,0 349.66,-39.13 349.66,-87.41 0,-48.28 -156.55,-87.42 -349.66,-87.42z"/>
  </g>
  <g id="_1624878674720">
   <path class="fil16" d="M3717.78 4477.94c17.08,0 32.39,3.55 45.92,10.64 13.54,7.09 24.11,17.6 31.73,31.53 7.62,13.93 11.43,30.74 11.43,50.45l0 128.11 -44.54 0 0 -121.4c0,-19.45 -4.86,-34.35 -14.58,-44.74 -9.72,-10.38 -22.99,-15.57 -39.81,-15.57 -16.82,0 -30.15,5.19 -40.01,15.57 -9.86,10.37 -14.78,25.29 -14.78,44.74l0 121.4 -44.93 0 0 -217.18 44.93 0 0 24.83c7.36,-8.93 16.75,-15.89 28.18,-20.89 11.43,-4.99 23.59,-7.49 36.46,-7.49l-0 0zm314.45 3.55l0 217.18 -44.93 0 0 -25.63c-7.09,8.93 -16.36,15.97 -27.79,21.09 -11.43,5.12 -23.59,7.68 -36.46,7.68 -17.08,0 -32.39,-3.55 -45.91,-10.64 -13.54,-7.09 -24.18,-17.6 -31.92,-31.53 -7.76,-13.93 -11.63,-30.74 -11.63,-50.45l0 -127.7 44.54 0 0 121c0,19.44 4.86,34.35 14.58,44.74 9.72,10.38 22.99,15.57 39.81,15.57 16.81,0 30.15,-5.19 40.01,-15.57 9.85,-10.38 14.78,-25.29 14.78,-44.74l0 -121 44.93 0 -0.01 0zm229.7 103.27c0,8.15 -0.53,15.5 -1.58,22.08l-165.94 0c1.31,17.34 7.76,31.27 19.32,41.78 11.56,10.51 25.75,15.77 42.56,15.77 24.18,0 41.26,-10.12 51.24,-30.35l48.48 0c-6.57,19.97 -18.46,36.33 -35.67,49.07 -17.21,12.74 -38.56,19.12 -64.05,19.12 -20.76,0 -39.35,-4.66 -55.77,-13.99 -16.42,-9.33 -29.3,-22.47 -38.62,-39.42 -9.33,-16.95 -13.99,-36.59 -13.99,-58.92 0,-22.34 4.53,-41.98 13.6,-58.92 9.07,-16.95 21.81,-30.02 38.23,-39.22 16.42,-9.2 35.28,-13.79 56.56,-13.79 20.5,0 38.76,4.47 54.79,13.4 16.03,8.93 28.51,21.48 37.44,37.64 8.93,16.16 13.4,34.76 13.4,55.77l-0.01 -0.01zm-46.91 -14.19c-0.26,-16.56 -6.17,-29.82 -17.74,-39.81 -11.56,-9.98 -25.88,-14.97 -42.97,-14.97 -15.5,0 -28.77,4.92 -39.81,14.78 -11.03,9.86 -17.6,23.19 -19.71,40.01l120.22 0 0 -0.01zm146.54 87.9l61.49 -176.98 47.69 0 -82.77 217.18 -53.61 0 -82.38 -217.18 48.09 0 61.49 176.98zm99.63 -69.37c0,-21.81 4.53,-41.12 13.6,-57.94 9.07,-16.81 21.42,-29.89 37.05,-39.22 15.64,-9.33 32.91,-13.99 51.83,-13.99 17.08,0 32,3.35 44.74,10.05 12.74,6.7 22.93,15.05 30.55,25.03l0 -31.53 45.33 0 0 217.18 -45.33 0 0 -32.33c-7.62,10.25 -18,18.79 -31.14,25.62 -13.13,6.84 -28.12,10.25 -44.93,10.25 -18.66,0 -35.74,-4.8 -51.24,-14.38 -15.5,-9.59 -27.79,-22.99 -36.86,-40.21 -9.07,-17.21 -13.6,-36.72 -13.6,-58.53l0 -0.01zm177.76 0.79c0,-14.97 -3.09,-27.98 -9.27,-39.02 -6.17,-11.03 -14.26,-19.45 -24.24,-25.23 -9.98,-5.78 -20.76,-8.67 -32.33,-8.67 -11.56,0 -22.34,2.82 -32.32,8.48 -9.99,5.65 -18.07,13.93 -24.24,24.83 -6.17,10.91 -9.26,23.85 -9.26,38.82 0,14.98 3.09,28.12 9.26,39.42 6.17,11.3 14.32,19.91 24.44,25.82 10.12,5.91 20.83,8.87 32.12,8.87 11.56,0 22.34,-2.89 32.33,-8.67 9.98,-5.78 18.07,-14.26 24.24,-25.42 6.17,-11.17 9.27,-24.24 9.27,-39.22l0 0.01z"/>
   <path class="fil4" d="M4087.02 4471.55c-7.31,0 -13.85,-1.6 -19.61,-4.78 -5.77,-3.18 -10.28,-7.66 -13.56,-13.42 -3.28,-5.77 -4.92,-12.25 -4.92,-19.47 0,-7.21 1.64,-13.68 4.92,-19.4 3.28,-5.72 7.81,-10.17 13.56,-13.35 5.77,-3.18 12.3,-4.78 19.61,-4.78 6.37,0 12.07,1.24 17.08,3.73 5.01,2.48 8.97,6.11 11.88,10.89l-7.45 5.06c-2.44,-3.66 -5.53,-6.39 -9.28,-8.22 -3.75,-1.82 -7.83,-2.74 -12.23,-2.74 -5.34,0 -10.14,1.2 -14.41,3.58 -4.26,2.39 -7.59,5.79 -9.98,10.19 -2.39,4.4 -3.58,9.42 -3.58,15.04 0,5.72 1.19,10.75 3.58,15.11 2.39,4.35 5.72,7.73 9.98,10.12 4.26,2.39 9.07,3.58 14.41,3.58 4.41,0 8.48,-0.89 12.23,-2.67 3.75,-1.78 6.84,-4.5 9.28,-8.15l7.45 5.06c-2.91,4.78 -6.89,8.41 -11.95,10.89 -5.06,2.48 -10.73,3.73 -17.01,3.73l-0.01 0.01zm60.63 -75.2c9.65,0 17.06,2.42 22.21,7.24 5.15,4.83 7.74,11.98 7.74,21.44l0 45.82 -9.56 0 0 -11.53c-2.25,3.84 -5.55,6.84 -9.91,8.99 -4.36,2.15 -9.54,3.23 -15.53,3.23 -8.25,0 -14.8,-1.97 -19.68,-5.9 -4.87,-3.94 -7.31,-9.14 -7.31,-15.6 0,-6.28 2.28,-11.34 6.81,-15.18 4.55,-3.84 11.78,-5.77 21.72,-5.77l23.48 0 0 -4.5c0,-6.37 -1.78,-11.23 -5.34,-14.55 -3.56,-3.33 -8.76,-4.99 -15.6,-4.99 -4.68,0 -9.19,0.77 -13.49,2.32 -4.31,1.55 -8.01,3.68 -11.1,6.39l-4.5 -7.45c3.75,-3.18 8.25,-5.65 13.49,-7.38 5.25,-1.73 10.78,-2.6 16.59,-2.6l-0.01 -0.01zm-3.51 67.33c5.62,0 10.45,-1.29 14.48,-3.86 4.03,-2.58 7.03,-6.3 8.99,-11.18l0 -12.09 -23.19 0c-12.65,0 -18.98,4.41 -18.98,13.22 0,4.31 1.64,7.71 4.92,10.19 3.28,2.48 7.87,3.73 13.78,3.73l0 -0.01zm46.85 -97.13l9.98 0 0 104.31 -9.98 0 0 -104.31zm88.46 70.43l-61.85 0c0.56,7.68 3.51,13.89 8.85,18.62 5.34,4.73 12.09,7.1 20.24,7.1 4.59,0 8.81,-0.82 12.65,-2.46 3.84,-1.64 7.17,-4.06 9.98,-7.24l5.62 6.47c-3.28,3.94 -7.38,6.93 -12.3,8.99 -4.92,2.06 -10.34,3.09 -16.24,3.09 -7.59,0 -14.31,-1.62 -20.17,-4.85 -5.86,-3.23 -10.43,-7.71 -13.71,-13.42 -3.28,-5.72 -4.92,-12.18 -4.92,-19.4 0,-7.21 1.57,-13.68 4.71,-19.4 3.14,-5.72 7.45,-10.17 12.93,-13.35 5.48,-3.19 11.65,-4.78 18.48,-4.78 6.84,0 12.98,1.6 18.42,4.78 5.44,3.18 9.7,7.61 12.79,13.29 3.09,5.67 4.64,12.16 4.64,19.46l-0.14 3.09 0.01 0zm-35.7 -32.05c-7.12,0 -13.09,2.28 -17.92,6.82 -4.82,4.55 -7.57,10.47 -8.22,17.78l52.43 0c-0.65,-7.31 -3.4,-13.24 -8.22,-17.78 -4.83,-4.55 -10.85,-6.82 -18.06,-6.82l0.01 0zm66.95 -30.64c-4.31,0 -7.57,1.17 -9.77,3.51 -2.2,2.35 -3.3,5.81 -3.3,10.4l0 8.71 22.77 0 0 8.43 -22.49 0 0 65.5 -9.98 0 0 -65.5 -13.21 0 0 -8.43 13.21 0 0 -9.14c0,-6.75 1.95,-12.09 5.83,-16.02 3.89,-3.94 9.39,-5.9 16.51,-5.9 2.81,0 5.53,0.4 8.16,1.19 2.62,0.8 4.82,1.95 6.6,3.44l-3.37 7.45c-2.91,-2.44 -6.56,-3.66 -10.96,-3.66l-0.01 0zm33.91 22.07c9.65,0 17.06,2.42 22.21,7.24 5.15,4.83 7.73,11.98 7.73,21.44l0 45.82 -9.56 0 0 -11.53c-2.25,3.84 -5.55,6.84 -9.91,8.99 -4.35,2.15 -9.54,3.23 -15.53,3.23 -8.25,0 -14.8,-1.97 -19.68,-5.9 -4.87,-3.94 -7.31,-9.14 -7.31,-15.6 0,-6.28 2.27,-11.34 6.81,-15.18 4.55,-3.84 11.78,-5.77 21.72,-5.77l23.48 0 0 -4.5c0,-6.37 -1.78,-11.23 -5.34,-14.55 -3.56,-3.33 -8.76,-4.99 -15.6,-4.99 -4.68,0 -9.19,0.77 -13.49,2.32 -4.31,1.55 -8.01,3.68 -11.1,6.39l-4.5 -7.45c3.75,-3.18 8.25,-5.65 13.49,-7.38 5.24,-1.73 10.78,-2.6 16.59,-2.6l-0.01 -0.01zm-3.51 67.33c5.62,0 10.45,-1.29 14.48,-3.86 4.03,-2.58 7.03,-6.3 8.99,-11.18l0 -12.09 -23.19 0c-12.65,0 -18.98,4.41 -18.98,13.22 0,4.31 1.64,7.71 4.92,10.19 3.28,2.48 7.87,3.73 13.78,3.73l0 -0.01zm77.77 7.87c-7.31,0 -13.85,-1.6 -19.61,-4.78 -5.77,-3.18 -10.28,-7.66 -13.56,-13.42 -3.28,-5.77 -4.92,-12.25 -4.92,-19.47 0,-7.21 1.64,-13.68 4.92,-19.4 3.28,-5.72 7.81,-10.17 13.56,-13.35 5.77,-3.18 12.3,-4.78 19.61,-4.78 6.37,0 12.07,1.24 17.08,3.73 5.01,2.48 8.97,6.11 11.88,10.89l-7.45 5.06c-2.44,-3.66 -5.53,-6.39 -9.28,-8.22 -3.75,-1.82 -7.83,-2.74 -12.23,-2.74 -5.34,0 -10.14,1.2 -14.41,3.58 -4.26,2.39 -7.59,5.79 -9.98,10.19 -2.39,4.4 -3.58,9.42 -3.58,15.04 0,5.72 1.19,10.75 3.58,15.11 2.39,4.35 5.72,7.73 9.98,10.12 4.26,2.39 9.07,3.58 14.41,3.58 4.41,0 8.48,-0.89 12.23,-2.67 3.75,-1.78 6.84,-4.5 9.28,-8.15l7.45 5.06c-2.91,4.78 -6.89,8.41 -11.95,10.89 -5.06,2.48 -10.73,3.73 -17.01,3.73l-0.01 0.01zm64.14 0c-7.31,0 -13.85,-1.6 -19.61,-4.78 -5.77,-3.18 -10.28,-7.66 -13.56,-13.42 -3.28,-5.77 -4.92,-12.25 -4.92,-19.47 0,-7.21 1.64,-13.68 4.92,-19.4 3.28,-5.72 7.8,-10.17 13.56,-13.35 5.77,-3.18 12.3,-4.78 19.61,-4.78 6.37,0 12.07,1.24 17.08,3.73 5.01,2.48 8.97,6.11 11.88,10.89l-7.45 5.06c-2.44,-3.66 -5.53,-6.39 -9.28,-8.22 -3.75,-1.82 -7.83,-2.74 -12.23,-2.74 -5.34,0 -10.14,1.2 -14.41,3.58 -4.26,2.39 -7.59,5.79 -9.98,10.19 -2.39,4.4 -3.58,9.42 -3.58,15.04 0,5.72 1.2,10.75 3.58,15.11 2.39,4.35 5.72,7.73 9.98,10.12 4.26,2.39 9.07,3.58 14.41,3.58 4.41,0 8.48,-0.89 12.23,-2.67 3.75,-1.78 6.84,-4.5 9.28,-8.15l7.45 5.06c-2.91,4.78 -6.88,8.41 -11.95,10.89 -5.06,2.48 -10.72,3.73 -17.01,3.73l-0.01 0.01zm34.76 -74.64l9.98 0 0 73.94 -9.98 0 0 -73.94zm5.06 -16.16c-2.06,0 -3.79,-0.71 -5.2,-2.11 -1.4,-1.4 -2.11,-3.09 -2.11,-5.06 0,-1.87 0.7,-3.51 2.11,-4.92 1.4,-1.4 3.14,-2.11 5.2,-2.11 2.06,0 3.79,0.68 5.2,2.04 1.4,1.36 2.11,2.97 2.11,4.84 0,2.06 -0.71,3.79 -2.11,5.2 -1.4,1.4 -3.14,2.11 -5.2,2.11zm49.24 90.81c-7.12,0 -13.54,-1.62 -19.26,-4.85 -5.72,-3.23 -10.21,-7.71 -13.49,-13.42 -3.28,-5.72 -4.92,-12.18 -4.92,-19.4 0,-7.21 1.64,-13.68 4.92,-19.4 3.28,-5.72 7.78,-10.17 13.49,-13.35 5.72,-3.18 12.14,-4.78 19.26,-4.78 7.12,0 13.54,1.6 19.26,4.78 5.72,3.18 10.19,7.63 13.42,13.35 3.23,5.72 4.85,12.18 4.85,19.4 0,7.21 -1.62,13.69 -4.85,19.4 -3.24,5.72 -7.71,10.19 -13.42,13.42 -5.72,3.24 -12.14,4.85 -19.26,4.85zm0 -8.85c5.25,0 9.96,-1.2 14.13,-3.58 4.17,-2.39 7.43,-5.79 9.77,-10.19 2.35,-4.41 3.51,-9.42 3.51,-15.04 0,-5.62 -1.17,-10.63 -3.51,-15.04 -2.35,-4.41 -5.6,-7.81 -9.77,-10.19 -4.17,-2.39 -8.88,-3.59 -14.13,-3.59 -5.24,0 -9.96,1.2 -14.12,3.59 -4.17,2.39 -7.45,5.79 -9.85,10.19 -2.39,4.4 -3.58,9.42 -3.58,15.04 0,5.62 1.2,10.63 3.58,15.04 2.39,4.41 5.67,7.81 9.85,10.19 4.17,2.39 8.88,3.58 14.12,3.58zm9.98 -94.75l13.36 0 -22.77 17.43 -9.85 0 19.26 -17.43zm71.87 28.4c9.28,0 16.66,2.69 22.14,8.08 5.48,5.39 8.22,13.24 8.22,23.54l0 42.87 -9.98 0 0 -41.89c0,-7.68 -1.93,-13.54 -5.77,-17.57 -3.84,-4.03 -9.32,-6.05 -16.44,-6.05 -7.97,0 -14.27,2.37 -18.91,7.1 -4.64,4.73 -6.95,11.27 -6.95,19.61l0 38.79 -9.98 0 0 -73.94 9.56 0 0 13.64c2.72,-4.5 6.49,-7.99 11.32,-10.47 4.83,-2.48 10.43,-3.73 16.8,-3.73l-0.01 0.01z"/>
   <path class="fil17" d="M3660.69 4440.76l41.48 -119.4 32.18 0 -55.84 146.53 -36.16 0 -55.58 -146.53 32.44 0 41.48 119.4zm92.75 -130.84c-5.5,0 -10.11,-1.86 -13.83,-5.59 -3.72,-3.72 -5.59,-8.33 -5.59,-13.83 0,-5.49 1.86,-10.11 5.59,-13.82 3.72,-3.72 8.33,-5.59 13.83,-5.59 5.32,0 9.84,1.86 13.56,5.59 3.72,3.72 5.59,8.33 5.59,13.82 0,5.5 -1.86,10.11 -5.59,13.83 -3.72,3.72 -8.24,5.59 -13.56,5.59zm14.89 11.44l0 146.53 -30.31 0 0 -146.53 30.31 0zm51 -50.26l0 196.79 -30.31 0 0 -196.79 30.31 0zm51 0l0 196.79 -30.31 0 0 -196.79 30.31 0zm10.58 122.86c0,-14.71 3.06,-27.75 9.17,-39.09 6.12,-11.35 14.45,-20.17 25,-26.46 10.55,-6.29 22.2,-9.45 34.97,-9.45 11.53,0 21.58,2.26 30.18,6.78 8.6,4.52 15.47,10.15 20.61,16.88l0 -21.28 30.58 0 0 146.53 -30.58 0 0 -21.8c-5.14,6.91 -12.15,12.67 -21.01,17.29 -8.87,4.61 -18.97,6.91 -30.32,6.91 -12.59,0 -24.11,-3.24 -34.57,-9.71 -10.47,-6.47 -18.75,-15.51 -24.87,-27.13 -6.12,-11.61 -9.17,-24.77 -9.17,-39.5l0 0.02zm119.94 0.53c0,-10.11 -2.08,-18.88 -6.25,-26.33 -4.17,-7.45 -9.62,-13.12 -16.36,-17.02 -6.74,-3.9 -14,-5.85 -21.8,-5.85 -7.8,0 -15.07,1.9 -21.81,5.72 -6.74,3.81 -12.19,9.39 -16.36,16.76 -4.16,7.36 -6.25,16.09 -6.25,26.19 0,10.11 2.08,18.97 6.25,26.6 4.16,7.62 9.67,13.43 16.49,17.42 6.83,3.99 14.05,5.98 21.67,5.98 7.8,0 15.07,-1.95 21.8,-5.85 6.74,-3.9 12.19,-9.62 16.36,-17.16 4.16,-7.53 6.25,-16.36 6.25,-26.46l0.01 0.01z"/>
   <g>
    <path class="fil18" d="M5064.43 4496.34c0,-53.58 -23.33,-101.7 -60.38,-134.78 -5.82,-18.96 -27.64,-31.43 -48.24,-32.37 7.91,-8.98 12.29,-20.55 12.29,-32.52 0,-6.67 -1.36,-13.29 -3.99,-19.41 -14.86,21.65 -45.36,23.95 -71.62,24.12 11.33,-4.39 16.43,-20.09 9.84,-30.29 -23.23,31.14 -65.14,40.8 -97.25,62.61 -60.33,29.26 -101.93,91.08 -101.93,162.64 0,30.29 7.46,58.84 20.64,83.91 19.3,70.47 83.79,121.97 160,121.97 76.39,0 140.75,-51.67 160.01,-121.98 13.18,-25.07 20.64,-53.61 20.64,-83.9z"/>
    <path id="_1111_1" class="fil7" d="M4801.77 4456.13c38.81,33.29 111.55,65.64 230.99,15.72l-1.06 -1.66c-115.83,48.06 -187.58,18.6 -226.96,-13.66 -1,-0.12 -2,-0.26 -2.98,-0.41z"/>
    <path class="fil8" d="M4720.39 4534.63c-0.82,-0.26 -1.67,-0.39 -2.54,-0.39 -5.74,0 -10.75,5.87 -13.41,14.59 -1.29,4.23 -2.03,9.13 -2.03,14.35 0,14.12 5.4,25.88 12.53,28.43 0.94,0.34 1.91,0.51 2.9,0.51 0.79,0 1.57,-0.11 2.33,-0.33 0.05,-0.02 0.1,-0.03 0.16,-0.05 5.7,-1.73 10.36,-9.33 12.15,-19.38l84.3 68.61c0,0 60.53,-38.61 142.97,0l75.57 -67.28c1.97,9.44 6.49,16.46 11.98,18.07 0.05,0.02 0.11,0.03 0.16,0.05 0.73,0.2 1.48,0.3 2.24,0.3 1.03,0 2.03,-0.19 3,-0.55 7.09,-2.62 12.43,-14.33 12.43,-28.39 0,-5.14 -0.71,-9.96 -1.97,-14.14 -2.64,-8.83 -7.68,-14.79 -13.47,-14.79 -0.83,0 -1.66,0.12 -2.46,0.36 -3.75,-21.47 -11.63,-41.53 -22.79,-59.31 -114.48,45.02 -184.74,13.42 -222.65,-19.09 -13.44,-2.01 -24.67,-6.21 -31.82,-13.58 -25.47,24.03 -43.34,56.03 -49.62,92.01zm163.18 106.34c-32.27,0 -58.44,6.54 -58.44,14.61 0,8.07 26.17,14.61 58.44,14.61 32.28,0 58.44,-6.54 58.44,-14.61 0,-8.07 -26.17,-14.61 -58.44,-14.61z"/>
   </g>
  </g>
 </g>
</svg>
